<svg xmlns="http://www.w3.org/2000/svg" version="1.1" xmlns:xlink="http://www.w3.org/1999/xlink" xmlns:svgjs="http://svgjs.com/svgjs" width="1440" height="560" preserveAspectRatio="none" viewBox="0 0 1440 560"><g mask="url(&quot;#SvgjsMask1000&quot;)" fill="none"><rect width="1440" height="560" x="0" y="0" fill="#1e3266"></rect><path d="M1488 560L0 560 L0 344.57Q72.88 297.44, 120 370.32Q162.08 292.4, 240 334.48Q306.44 280.92, 360 347.36Q401.65 269.01, 480 310.66Q529.36 240.02, 600 289.38Q661.16 278.54, 672 339.71Q741.34 289.05, 792 358.39Q820.11 266.5, 912 294.61Q966.69 229.31, 1032 284Q1080.76 260.76, 1104 309.53Q1152.74 286.27, 1176 335.01Q1215.48 254.49, 1296 293.97Q1325.19 251.17, 1368 280.36Q1464.87 257.23, 1488 354.09z" fill="#182f5d"></path><path d="M1512 560L0 560 L0 390.61Q40.14 310.75, 120 350.9Q188.44 299.33, 240 367.77Q300.49 356.26, 312 416.75Q363.35 396.1, 384 447.45Q384.7 376.15, 456 376.86Q507.87 308.73, 576 360.6Q639.28 351.88, 648 415.17Q718.39 365.56, 768 435.95Q809.81 357.76, 888 399.58Q930.36 321.94, 1008 364.29Q1106.74 343.03, 1128 441.78Q1175 368.78, 1248 415.78Q1301.27 349.05, 1368 402.32Q1422.3 384.62, 1440 438.91Q1463.57 390.48, 1512 414.05z" fill="#25467d"></path><path d="M1560 560L0 560 L0 510.51Q10.65 449.16, 72 459.81Q116.9 384.71, 192 429.6Q260.43 378.03, 312 446.46Q378.8 393.25, 432 460.05Q448.44 404.5, 504 420.94Q550.72 395.66, 576 442.38Q606.37 400.75, 648 431.12Q747.38 410.5, 768 509.89Q819 440.89, 888 491.89Q914.79 398.68, 1008 425.47Q1090.41 387.88, 1128 470.29Q1172.67 394.97, 1248 439.64Q1302.14 373.78, 1368 427.93Q1425.5 413.43, 1440 470.93Q1490.08 401, 1560 451.08z" fill="#356cb1"></path><path d="M1536 560L0 560 L0 556.91Q60.5 497.4, 120 557.9Q193.54 511.44, 240 584.99Q274.07 499.06, 360 533.12Q411.88 465, 480 516.88Q504.31 469.19, 552 493.49Q606.86 476.35, 624 531.2Q652.87 488.07, 696 516.94Q789.66 490.6, 816 584.26Q853.87 502.13, 936 539.99Q978.24 462.23, 1056 504.46Q1126.48 454.94, 1176 525.43Q1252.61 482.04, 1296 558.65Q1322.92 465.58, 1416 492.5Q1498.03 454.53, 1536 536.56z" fill="white"></path></g><defs><mask id="SvgjsMask1000"><rect width="1440" height="560" fill="#ffffff"></rect></mask></defs></svg>