<svg xmlns="http://www.w3.org/2000/svg" version="1.1" xmlns:xlink="http://www.w3.org/1999/xlink" xmlns:svgjs="http://svgjs.com/svgjs" width="1440" height="560" preserveAspectRatio="none" viewBox="0 0 1440 560"><g mask="url(&quot;#SvgjsMask1001&quot;)" fill="none"><path d="M354.83 634.15C528.11 617.27 618.86 260.71 935.54 249.79 1252.22 238.87 1367.84 127.27 1516.25 126.59" stroke="rgba(51,121,194,0.58)" stroke-width="2"></path><path d="M507.33 656.84C622.58 639.47 569.99 377.09 870.61 364.64 1171.24 352.19 1407.52 148.58 1597.18 146.24" stroke="rgba(51,121,194,0.58)" stroke-width="2"></path><path d="M620 628.49C744.94 601.06 679.77 287.9 987.82 272.81 1295.87 257.72 1533.14 78.48 1723.46 76.81" stroke="rgba(51,121,194,0.58)" stroke-width="2"></path><path d="M129.95 596.9C324.16 579.32 452.96 176.68 786.51 175.74 1120.06 174.8 1272.56 358.79 1443.07 360.54" stroke="rgba(51,121,194,0.58)" stroke-width="2"></path><path d="M660.45 563.57C794.24 489.78 726.54 42.5 973.44 38.65 1220.34 34.8 1433.7 253.94 1599.42 257.05" stroke="rgba(51,121,194,0.58)" stroke-width="2"></path></g><defs><mask id="SvgjsMask1001"><rect width="1440" height="560" fill="#ffffff"></rect></mask></defs></svg>