<svg xmlns="http://www.w3.org/2000/svg" version="1.1" xmlns:xlink="http://www.w3.org/1999/xlink" xmlns:svgjs="http://svgjs.com/svgjs" width="1440" height="560" preserveAspectRatio="none" viewBox="0 0 1440 560"><g mask="url(&quot;#SvgjsMask3375&quot;)" fill="none"><rect width="1440" height="560" x="0" y="0" fill="url(#SvgjsLinearGradient3376)"></rect><path d="M-79.38 411.47L-79.38 411.47" stroke="rgba(0, 0, 0, 0.2)" stroke-width="1.5"></path><path d="M-79.38 411.47L-92.87 561.18" stroke="rgba(0, 0, 0, 0.2)" stroke-width="1.5"></path><path d="M-79.38 411.47L89.33 509.1" stroke="rgba(0, 0, 0, 0.2)" stroke-width="1.5"></path><path d="M-79.38 411.47L-95.3 666.34" stroke="rgba(0, 0, 0, 0.2)" stroke-width="1.5"></path><path d="M-79.38 411.47L46.54 655.89" stroke="rgba(0, 0, 0, 0.2)" stroke-width="1.5"></path><path d="M-92.87 561.18L-92.87 561.18" stroke="rgba(0, 0, 0, 0.2)" stroke-width="1.5"></path><path d="M-92.87 561.18L-95.3 666.34" stroke="rgba(0, 0, 0, 0.2)" stroke-width="1.5"></path><path d="M-92.87 561.18L46.54 655.89" stroke="rgba(0, 0, 0, 0.2)" stroke-width="1.5"></path><path d="M-95.3 666.34L-95.3 666.34" stroke="rgba(0, 0, 0, 0.2)" stroke-width="1.5"></path><path d="M-95.3 666.34L46.54 655.89" stroke="rgba(0, 0, 0, 0.2)" stroke-width="1.5"></path><path d="M89.33 509.1L89.33 509.1" stroke="rgba(0, 0, 0, 0.2)" stroke-width="1.5"></path><path d="M89.33 509.1L46.54 655.89" stroke="rgba(0, 0, 0, 0.2)" stroke-width="1.5"></path><path d="M89.33 509.1L256.52 529.9" stroke="rgba(0, 0, 0, 0.2)" stroke-width="1.5"></path><path d="M89.33 509.1L233.95 387.58" stroke="rgba(0, 0, 0, 0.2)" stroke-width="1.5"></path><path d="M46.54 655.89L46.54 655.89" stroke="rgba(0, 0, 0, 0.2)" stroke-width="1.5"></path><path d="M233.95 387.58L233.95 387.58" stroke="rgba(0, 0, 0, 0.2)" stroke-width="1.5"></path><path d="M233.95 387.58L256.52 529.9" stroke="rgba(0, 0, 0, 0.2)" stroke-width="1.5"></path><path d="M233.95 387.58L403.53 384.6" stroke="rgba(0, 0, 0, 0.2)" stroke-width="1.5"></path><path d="M256.52 529.9L256.52 529.9" stroke="rgba(0, 0, 0, 0.2)" stroke-width="1.5"></path><path d="M256.52 529.9L364.37 663.05" stroke="rgba(0, 0, 0, 0.2)" stroke-width="1.5"></path><path d="M403.53 384.6L403.53 384.6" stroke="rgba(0, 0, 0, 0.2)" stroke-width="1.5"></path><path d="M403.53 384.6L555.84 353.9" stroke="rgba(0, 0, 0, 0.2)" stroke-width="1.5"></path><path d="M403.53 384.6L501.39 535.37" stroke="rgba(0, 0, 0, 0.2)" stroke-width="1.5"></path><path d="M403.53 384.6L256.52 529.9" stroke="rgba(0, 0, 0, 0.2)" stroke-width="1.5"></path><path d="M364.37 663.05L364.37 663.05" stroke="rgba(0, 0, 0, 0.2)" stroke-width="1.5"></path><path d="M364.37 663.05L502.56 700.25" stroke="rgba(0, 0, 0, 0.2)" stroke-width="1.5"></path><path d="M364.37 663.05L501.39 535.37" stroke="rgba(0, 0, 0, 0.2)" stroke-width="1.5"></path><path d="M555.84 353.9L555.84 353.9" stroke="rgba(0, 0, 0, 0.2)" stroke-width="1.5"></path><path d="M555.84 353.9L655.02 371.86" stroke="rgba(0, 0, 0, 0.2)" stroke-width="1.5"></path><path d="M555.84 353.9L680.14 238.51" stroke="rgba(0, 0, 0, 0.2)" stroke-width="1.5"></path><path d="M501.39 535.37L501.39 535.37" stroke="rgba(0, 0, 0, 0.2)" stroke-width="1.5"></path><path d="M501.39 535.37L502.56 700.25" stroke="rgba(0, 0, 0, 0.2)" stroke-width="1.5"></path><path d="M501.39 535.37L679.72 519.74" stroke="rgba(0, 0, 0, 0.2)" stroke-width="1.5"></path><path d="M502.56 700.25L502.56 700.25" stroke="rgba(0, 0, 0, 0.2)" stroke-width="1.5"></path><path d="M502.56 700.25L652.05 668.74" stroke="rgba(0, 0, 0, 0.2)" stroke-width="1.5"></path><path d="M680.14 238.51L680.14 238.51" stroke="rgba(0, 0, 0, 0.2)" stroke-width="1.5"></path><path d="M680.14 238.51L796.12 261.52" stroke="rgba(0, 0, 0, 0.2)" stroke-width="1.5"></path><path d="M680.14 238.51L655.02 371.86" stroke="rgba(0, 0, 0, 0.2)" stroke-width="1.5"></path><path d="M655.02 371.86L655.02 371.86" stroke="rgba(0, 0, 0, 0.2)" stroke-width="1.5"></path><path d="M655.02 371.86L798.45 404.59" stroke="rgba(0, 0, 0, 0.2)" stroke-width="1.5"></path><path d="M679.72 519.74L679.72 519.74" stroke="rgba(0, 0, 0, 0.2)" stroke-width="1.5"></path><path d="M679.72 519.74L655.02 371.86" stroke="rgba(0, 0, 0, 0.2)" stroke-width="1.5"></path><path d="M679.72 519.74L652.05 668.74" stroke="rgba(0, 0, 0, 0.2)" stroke-width="1.5"></path><path d="M652.05 668.74L652.05 668.74" stroke="rgba(0, 0, 0, 0.2)" stroke-width="1.5"></path><path d="M860.91 53.29L860.91 53.29" stroke="rgba(0, 0, 0, 0.2)" stroke-width="1.5"></path><path d="M860.91 53.29L988.76 105.74" stroke="rgba(0, 0, 0, 0.2)" stroke-width="1.5"></path><path d="M860.91 53.29L980.75 -66.13" stroke="rgba(0, 0, 0, 0.2)" stroke-width="1.5"></path><path d="M860.91 53.29L974.91 237.72" stroke="rgba(0, 0, 0, 0.2)" stroke-width="1.5"></path><path d="M860.91 53.29L796.12 261.52" stroke="rgba(0, 0, 0, 0.2)" stroke-width="1.5"></path><path d="M860.91 53.29L680.14 238.51" stroke="rgba(0, 0, 0, 0.2)" stroke-width="1.5"></path><path d="M796.12 261.52L796.12 261.52" stroke="rgba(0, 0, 0, 0.2)" stroke-width="1.5"></path><path d="M796.12 261.52L798.45 404.59" stroke="rgba(0, 0, 0, 0.2)" stroke-width="1.5"></path><path d="M796.12 261.52L944.7 348.76" stroke="rgba(0, 0, 0, 0.2)" stroke-width="1.5"></path><path d="M798.45 404.59L798.45 404.59" stroke="rgba(0, 0, 0, 0.2)" stroke-width="1.5"></path><path d="M798.45 404.59L854.58 542.64" stroke="rgba(0, 0, 0, 0.2)" stroke-width="1.5"></path><path d="M854.58 542.64L854.58 542.64" stroke="rgba(0, 0, 0, 0.2)" stroke-width="1.5"></path><path d="M854.58 542.64L977.88 555.14" stroke="rgba(0, 0, 0, 0.2)" stroke-width="1.5"></path><path d="M854.58 542.64L849.11 695.18" stroke="rgba(0, 0, 0, 0.2)" stroke-width="1.5"></path><path d="M854.58 542.64L679.72 519.74" stroke="rgba(0, 0, 0, 0.2)" stroke-width="1.5"></path><path d="M854.58 542.64L1009.78 644.16" stroke="rgba(0, 0, 0, 0.2)" stroke-width="1.5"></path><path d="M849.11 695.18L849.11 695.18" stroke="rgba(0, 0, 0, 0.2)" stroke-width="1.5"></path><path d="M980.75 -66.13L980.75 -66.13" stroke="rgba(0, 0, 0, 0.2)" stroke-width="1.5"></path><path d="M980.75 -66.13L988.76 105.74" stroke="rgba(0, 0, 0, 0.2)" stroke-width="1.5"></path><path d="M980.75 -66.13L1158.27 -73.07" stroke="rgba(0, 0, 0, 0.2)" stroke-width="1.5"></path><path d="M980.75 -66.13L1127.94 81.43" stroke="rgba(0, 0, 0, 0.2)" stroke-width="1.5"></path><path d="M988.76 105.74L988.76 105.74" stroke="rgba(0, 0, 0, 0.2)" stroke-width="1.5"></path><path d="M988.76 105.74L974.91 237.72" stroke="rgba(0, 0, 0, 0.2)" stroke-width="1.5"></path><path d="M974.91 237.72L974.91 237.72" stroke="rgba(0, 0, 0, 0.2)" stroke-width="1.5"></path><path d="M974.91 237.72L944.7 348.76" stroke="rgba(0, 0, 0, 0.2)" stroke-width="1.5"></path><path d="M974.91 237.72L1119.2 210.88" stroke="rgba(0, 0, 0, 0.2)" stroke-width="1.5"></path><path d="M944.7 348.76L944.7 348.76" stroke="rgba(0, 0, 0, 0.2)" stroke-width="1.5"></path><path d="M944.7 348.76L798.45 404.59" stroke="rgba(0, 0, 0, 0.2)" stroke-width="1.5"></path><path d="M944.7 348.76L1133.08 410.93" stroke="rgba(0, 0, 0, 0.2)" stroke-width="1.5"></path><path d="M944.7 348.76L977.88 555.14" stroke="rgba(0, 0, 0, 0.2)" stroke-width="1.5"></path><path d="M977.88 555.14L977.88 555.14" stroke="rgba(0, 0, 0, 0.2)" stroke-width="1.5"></path><path d="M977.88 555.14L1009.78 644.16" stroke="rgba(0, 0, 0, 0.2)" stroke-width="1.5"></path><path d="M977.88 555.14L1110.48 648.83" stroke="rgba(0, 0, 0, 0.2)" stroke-width="1.5"></path><path d="M977.88 555.14L1151.95 496.5" stroke="rgba(0, 0, 0, 0.2)" stroke-width="1.5"></path><path d="M977.88 555.14L849.11 695.18" stroke="rgba(0, 0, 0, 0.2)" stroke-width="1.5"></path><path d="M1009.78 644.16L1009.78 644.16" stroke="rgba(0, 0, 0, 0.2)" stroke-width="1.5"></path><path d="M1009.78 644.16L1110.48 648.83" stroke="rgba(0, 0, 0, 0.2)" stroke-width="1.5"></path><path d="M1158.27 -73.07L1158.27 -73.07" stroke="rgba(0, 0, 0, 0.2)" stroke-width="1.5"></path><path d="M1158.27 -73.07L1303.07 -76.3" stroke="rgba(0, 0, 0, 0.2)" stroke-width="1.5"></path><path d="M1158.27 -73.07L1127.94 81.43" stroke="rgba(0, 0, 0, 0.2)" stroke-width="1.5"></path><path d="M1127.94 81.43L1127.94 81.43" stroke="rgba(0, 0, 0, 0.2)" stroke-width="1.5"></path><path d="M1127.94 81.43L1119.2 210.88" stroke="rgba(0, 0, 0, 0.2)" stroke-width="1.5"></path><path d="M1127.94 81.43L988.76 105.74" stroke="rgba(0, 0, 0, 0.2)" stroke-width="1.5"></path><path d="M1127.94 81.43L1301.62 77.94" stroke="rgba(0, 0, 0, 0.2)" stroke-width="1.5"></path><path d="M1119.2 210.88L1119.2 210.88" stroke="rgba(0, 0, 0, 0.2)" stroke-width="1.5"></path><path d="M1119.2 210.88L1259.29 212.38" stroke="rgba(0, 0, 0, 0.2)" stroke-width="1.5"></path><path d="M1133.08 410.93L1133.08 410.93" stroke="rgba(0, 0, 0, 0.2)" stroke-width="1.5"></path><path d="M1133.08 410.93L1151.95 496.5" stroke="rgba(0, 0, 0, 0.2)" stroke-width="1.5"></path><path d="M1133.08 410.93L1270.1 362.09" stroke="rgba(0, 0, 0, 0.2)" stroke-width="1.5"></path><path d="M1133.08 410.93L1265.71 538.34" stroke="rgba(0, 0, 0, 0.2)" stroke-width="1.5"></path><path d="M1133.08 410.93L1119.2 210.88" stroke="rgba(0, 0, 0, 0.2)" stroke-width="1.5"></path><path d="M1151.95 496.5L1151.95 496.5" stroke="rgba(0, 0, 0, 0.2)" stroke-width="1.5"></path><path d="M1151.95 496.5L1265.71 538.34" stroke="rgba(0, 0, 0, 0.2)" stroke-width="1.5"></path><path d="M1151.95 496.5L1110.48 648.83" stroke="rgba(0, 0, 0, 0.2)" stroke-width="1.5"></path><path d="M1151.95 496.5L1270.1 362.09" stroke="rgba(0, 0, 0, 0.2)" stroke-width="1.5"></path><path d="M1110.48 648.83L1110.48 648.83" stroke="rgba(0, 0, 0, 0.2)" stroke-width="1.5"></path><path d="M1303.07 -76.3L1303.07 -76.3" stroke="rgba(0, 0, 0, 0.2)" stroke-width="1.5"></path><path d="M1303.07 -76.3L1451.63 -43.5" stroke="rgba(0, 0, 0, 0.2)" stroke-width="1.5"></path><path d="M1303.07 -76.3L1301.62 77.94" stroke="rgba(0, 0, 0, 0.2)" stroke-width="1.5"></path><path d="M1303.07 -76.3L1395.57 66.44" stroke="rgba(0, 0, 0, 0.2)" stroke-width="1.5"></path><path d="M1301.62 77.94L1301.62 77.94" stroke="rgba(0, 0, 0, 0.2)" stroke-width="1.5"></path><path d="M1301.62 77.94L1395.57 66.44" stroke="rgba(0, 0, 0, 0.2)" stroke-width="1.5"></path><path d="M1301.62 77.94L1259.29 212.38" stroke="rgba(0, 0, 0, 0.2)" stroke-width="1.5"></path><path d="M1259.29 212.38L1259.29 212.38" stroke="rgba(0, 0, 0, 0.2)" stroke-width="1.5"></path><path d="M1270.1 362.09L1270.1 362.09" stroke="rgba(0, 0, 0, 0.2)" stroke-width="1.5"></path><path d="M1270.1 362.09L1259.29 212.38" stroke="rgba(0, 0, 0, 0.2)" stroke-width="1.5"></path><path d="M1265.71 538.34L1265.71 538.34" stroke="rgba(0, 0, 0, 0.2)" stroke-width="1.5"></path><path d="M1265.71 538.34L1270.1 362.09" stroke="rgba(0, 0, 0, 0.2)" stroke-width="1.5"></path><path d="M1451.63 -43.5L1451.63 -43.5" stroke="rgba(0, 0, 0, 0.2)" stroke-width="1.5"></path><path d="M1451.63 -43.5L1539.31 -103.53" stroke="rgba(0, 0, 0, 0.2)" stroke-width="1.5"></path><path d="M1451.63 -43.5L1395.57 66.44" stroke="rgba(0, 0, 0, 0.2)" stroke-width="1.5"></path><path d="M1451.63 -43.5L1583.67 39.24" stroke="rgba(0, 0, 0, 0.2)" stroke-width="1.5"></path><path d="M1451.63 -43.5L1301.62 77.94" stroke="rgba(0, 0, 0, 0.2)" stroke-width="1.5"></path><path d="M1451.63 -43.5L1435.22 195.45" stroke="rgba(0, 0, 0, 0.2)" stroke-width="1.5"></path><path d="M1395.57 66.44L1395.57 66.44" stroke="rgba(0, 0, 0, 0.2)" stroke-width="1.5"></path><path d="M1395.57 66.44L1435.22 195.45" stroke="rgba(0, 0, 0, 0.2)" stroke-width="1.5"></path><path d="M1395.57 66.44L1583.67 39.24" stroke="rgba(0, 0, 0, 0.2)" stroke-width="1.5"></path><path d="M1395.57 66.44L1259.29 212.38" stroke="rgba(0, 0, 0, 0.2)" stroke-width="1.5"></path><path d="M1435.22 195.45L1435.22 195.45" stroke="rgba(0, 0, 0, 0.2)" stroke-width="1.5"></path><path d="M1435.22 195.45L1603.21 211.45" stroke="rgba(0, 0, 0, 0.2)" stroke-width="1.5"></path><path d="M1435.22 195.45L1259.29 212.38" stroke="rgba(0, 0, 0, 0.2)" stroke-width="1.5"></path><path d="M1435.22 195.45L1301.62 77.94" stroke="rgba(0, 0, 0, 0.2)" stroke-width="1.5"></path><path d="M1435.22 195.45L1583.67 39.24" stroke="rgba(0, 0, 0, 0.2)" stroke-width="1.5"></path><path d="M1446.23 537.5L1446.23 537.5" stroke="rgba(0, 0, 0, 0.2)" stroke-width="1.5"></path><path d="M1446.23 537.5L1606.62 541.21" stroke="rgba(0, 0, 0, 0.2)" stroke-width="1.5"></path><path d="M1446.23 537.5L1265.71 538.34" stroke="rgba(0, 0, 0, 0.2)" stroke-width="1.5"></path><path d="M1539.31 -103.53L1539.31 -103.53" stroke="rgba(0, 0, 0, 0.2)" stroke-width="1.5"></path><path d="M1539.31 -103.53L1583.67 39.24" stroke="rgba(0, 0, 0, 0.2)" stroke-width="1.5"></path><path d="M1583.67 39.24L1583.67 39.24" stroke="rgba(0, 0, 0, 0.2)" stroke-width="1.5"></path><path d="M1603.21 211.45L1603.21 211.45" stroke="rgba(0, 0, 0, 0.2)" stroke-width="1.5"></path><path d="M1603.21 211.45L1597.05 353.62" stroke="rgba(0, 0, 0, 0.2)" stroke-width="1.5"></path><path d="M1597.05 353.62L1597.05 353.62" stroke="rgba(0, 0, 0, 0.2)" stroke-width="1.5"></path><path d="M1597.05 353.62L1606.62 541.21" stroke="rgba(0, 0, 0, 0.2)" stroke-width="1.5"></path><path d="M1606.62 541.21L1606.62 541.21" stroke="rgba(0, 0, 0, 0.2)" stroke-width="1.5"></path><path d="M1606.62 541.21L1559.21 700.14" stroke="rgba(0, 0, 0, 0.2)" stroke-width="1.5"></path><path d="M1606.62 541.21L1603.21 211.45" stroke="rgba(0, 0, 0, 0.2)" stroke-width="1.5"></path><path d="M1559.21 700.14L1559.21 700.14" stroke="rgba(0, 0, 0, 0.2)" stroke-width="1.5"></path><path d="M1559.21 700.14L1446.23 537.5" stroke="rgba(0, 0, 0, 0.2)" stroke-width="1.5"></path><path d="M1559.21 700.14L1265.71 538.34" stroke="rgba(0, 0, 0, 0.2)" stroke-width="1.5"></path><path d="M1559.21 700.14L1597.05 353.62" stroke="rgba(0, 0, 0, 0.2)" stroke-width="1.5"></path><path d="M1559.21 700.14L1270.1 362.09" stroke="rgba(0, 0, 0, 0.2)" stroke-width="1.5"></path><circle r="5" cx="-79.38" cy="411.47" fill="rgba(0, 0, 0, 0.2)"></circle><circle r="5" cx="-92.87" cy="561.18" fill="rgba(0, 0, 0, 0.2)"></circle><circle r="5" cx="-95.3" cy="666.34" fill="rgba(0, 0, 0, 0.2)"></circle><circle r="5" cx="89.33" cy="509.1" fill="rgba(0, 0, 0, 0.2)"></circle><circle r="5" cx="46.54" cy="655.89" fill="rgba(0, 0, 0, 0.2)"></circle><circle r="5" cx="233.95" cy="387.58" fill="rgba(0, 0, 0, 0.2)"></circle><circle r="5" cx="256.52" cy="529.9" fill="rgba(0, 0, 0, 0.2)"></circle><circle r="5" cx="403.53" cy="384.6" fill="rgba(0, 0, 0, 0.2)"></circle><circle r="5" cx="364.37" cy="663.05" fill="rgba(0, 0, 0, 0.2)"></circle><circle r="5" cx="555.84" cy="353.9" fill="rgba(0, 0, 0, 0.2)"></circle><circle r="5" cx="501.39" cy="535.37" fill="rgba(0, 0, 0, 0.2)"></circle><circle r="5" cx="502.56" cy="700.25" fill="rgba(0, 0, 0, 0.2)"></circle><circle r="5" cx="680.14" cy="238.51" fill="rgba(0, 0, 0, 0.2)"></circle><circle r="5" cx="655.02" cy="371.86" fill="rgba(0, 0, 0, 0.2)"></circle><circle r="5" cx="679.72" cy="519.74" fill="rgba(0, 0, 0, 0.2)"></circle><circle r="5" cx="652.05" cy="668.74" fill="rgba(0, 0, 0, 0.2)"></circle><circle r="5" cx="860.91" cy="53.29" fill="rgba(0, 0, 0, 0.2)"></circle><circle r="5" cx="796.12" cy="261.52" fill="rgba(0, 0, 0, 0.2)"></circle><circle r="5" cx="798.45" cy="404.59" fill="rgba(0, 0, 0, 0.2)"></circle><circle r="5" cx="854.58" cy="542.64" fill="rgba(0, 0, 0, 0.2)"></circle><circle r="5" cx="849.11" cy="695.18" fill="rgba(0, 0, 0, 0.2)"></circle><circle r="5" cx="980.75" cy="-66.13" fill="rgba(0, 0, 0, 0.2)"></circle><circle r="5" cx="988.76" cy="105.74" fill="rgba(0, 0, 0, 0.2)"></circle><circle r="5" cx="974.91" cy="237.72" fill="rgba(0, 0, 0, 0.2)"></circle><circle r="5" cx="944.7" cy="348.76" fill="rgba(0, 0, 0, 0.2)"></circle><circle r="5" cx="977.88" cy="555.14" fill="rgba(0, 0, 0, 0.2)"></circle><circle r="5" cx="1009.78" cy="644.16" fill="rgba(0, 0, 0, 0.2)"></circle><circle r="5" cx="1158.27" cy="-73.07" fill="rgba(0, 0, 0, 0.2)"></circle><circle r="5" cx="1127.94" cy="81.43" fill="rgba(0, 0, 0, 0.2)"></circle><circle r="5" cx="1119.2" cy="210.88" fill="rgba(0, 0, 0, 0.2)"></circle><circle r="5" cx="1133.08" cy="410.93" fill="rgba(0, 0, 0, 0.2)"></circle><circle r="5" cx="1151.95" cy="496.5" fill="rgba(0, 0, 0, 0.2)"></circle><circle r="5" cx="1110.48" cy="648.83" fill="rgba(0, 0, 0, 0.2)"></circle><circle r="5" cx="1303.07" cy="-76.3" fill="rgba(0, 0, 0, 0.2)"></circle><circle r="5" cx="1301.62" cy="77.94" fill="rgba(0, 0, 0, 0.2)"></circle><circle r="5" cx="1259.29" cy="212.38" fill="rgba(0, 0, 0, 0.2)"></circle><circle r="5" cx="1270.1" cy="362.09" fill="rgba(0, 0, 0, 0.2)"></circle><circle r="5" cx="1265.71" cy="538.34" fill="rgba(0, 0, 0, 0.2)"></circle><circle r="5" cx="1451.63" cy="-43.5" fill="rgba(0, 0, 0, 0.2)"></circle><circle r="5" cx="1395.57" cy="66.44" fill="rgba(0, 0, 0, 0.2)"></circle><circle r="5" cx="1435.22" cy="195.45" fill="rgba(0, 0, 0, 0.2)"></circle><circle r="5" cx="1446.23" cy="537.5" fill="rgba(0, 0, 0, 0.2)"></circle><circle r="5" cx="1539.31" cy="-103.53" fill="rgba(0, 0, 0, 0.2)"></circle><circle r="5" cx="1583.67" cy="39.24" fill="rgba(0, 0, 0, 0.2)"></circle><circle r="5" cx="1603.21" cy="211.45" fill="rgba(0, 0, 0, 0.2)"></circle><circle r="5" cx="1597.05" cy="353.62" fill="rgba(0, 0, 0, 0.2)"></circle><circle r="5" cx="1606.62" cy="541.21" fill="rgba(0, 0, 0, 0.2)"></circle><circle r="5" cx="1559.21" cy="700.14" fill="rgba(0, 0, 0, 0.2)"></circle><path d="M846.65 534.61L846.65 534.61" stroke="hsla(43.89999999999998, 53.1%, 69.1%, 0.38)" stroke-width="1.5"></path><path d="M846.65 534.61L838.29 657.45" stroke="hsla(43.89999999999998, 53.1%, 69.1%, 0.38)" stroke-width="1.5"></path><path d="M846.65 534.61L979.4 527.41" stroke="hsla(43.89999999999998, 53.1%, 69.1%, 0.38)" stroke-width="1.5"></path><path d="M846.65 534.61L816.59 375.21" stroke="hsla(43.89999999999998, 53.1%, 69.1%, 0.38)" stroke-width="1.5"></path><path d="M846.65 534.61L948 682.61" stroke="hsla(43.89999999999998, 53.1%, 69.1%, 0.38)" stroke-width="1.5"></path><path d="M846.65 534.61L665.54 501.89" stroke="hsla(43.89999999999998, 53.1%, 69.1%, 0.38)" stroke-width="1.5"></path><path d="M996.6 402.6L996.6 402.6" stroke="hsla(43.89999999999998, 53.1%, 69.1%, 0.38)" stroke-width="1.5"></path><path d="M996.6 402.6L1100.37 359.06" stroke="hsla(43.89999999999998, 53.1%, 69.1%, 0.38)" stroke-width="1.5"></path><path d="M996.6 402.6L979.4 527.41" stroke="hsla(43.89999999999998, 53.1%, 69.1%, 0.38)" stroke-width="1.5"></path><path d="M996.6 402.6L997.82 253.46" stroke="hsla(43.89999999999998, 53.1%, 69.1%, 0.38)" stroke-width="1.5"></path><path d="M996.6 402.6L816.59 375.21" stroke="hsla(43.89999999999998, 53.1%, 69.1%, 0.38)" stroke-width="1.5"></path><path d="M996.6 402.6L846.65 534.61" stroke="hsla(43.89999999999998, 53.1%, 69.1%, 0.38)" stroke-width="1.5"></path><path d="M996.6 402.6L1157.66 537.81" stroke="hsla(43.89999999999998, 53.1%, 69.1%, 0.38)" stroke-width="1.5"></path><path d="M979.4 527.41L979.4 527.41" stroke="hsla(43.89999999999998, 53.1%, 69.1%, 0.38)" stroke-width="1.5"></path><path d="M979.4 527.41L948 682.61" stroke="hsla(43.89999999999998, 53.1%, 69.1%, 0.38)" stroke-width="1.5"></path><path d="M979.4 527.41L1157.66 537.81" stroke="hsla(43.89999999999998, 53.1%, 69.1%, 0.38)" stroke-width="1.5"></path><path d="M979.4 527.41L1114.88 650.63" stroke="hsla(43.89999999999998, 53.1%, 69.1%, 0.38)" stroke-width="1.5"></path><path d="M1433.96 243.46L1433.96 243.46" stroke="hsla(43.89999999999998, 53.1%, 69.1%, 0.38)" stroke-width="1.5"></path><path d="M1433.96 243.46L1544.01 236.6" stroke="hsla(43.89999999999998, 53.1%, 69.1%, 0.38)" stroke-width="1.5"></path><path d="M1433.96 243.46L1414.83 378.92" stroke="hsla(43.89999999999998, 53.1%, 69.1%, 0.38)" stroke-width="1.5"></path><path d="M1610.07 511.48L1610.07 511.48" stroke="hsla(43.89999999999998, 53.1%, 69.1%, 0.38)" stroke-width="1.5"></path><path d="M1610.07 511.48L1558.87 348.22" stroke="hsla(43.89999999999998, 53.1%, 69.1%, 0.38)" stroke-width="1.5"></path><path d="M-100.47 518.51L-100.47 518.51" stroke="hsla(43.89999999999998, 53.1%, 69.1%, 0.38)" stroke-width="1.5"></path><path d="M-100.47 518.51L-69.08 652.73" stroke="hsla(43.89999999999998, 53.1%, 69.1%, 0.38)" stroke-width="1.5"></path><path d="M-100.47 518.51L83.35 507.06" stroke="hsla(43.89999999999998, 53.1%, 69.1%, 0.38)" stroke-width="1.5"></path><path d="M-69.08 652.73L-69.08 652.73" stroke="hsla(43.89999999999998, 53.1%, 69.1%, 0.38)" stroke-width="1.5"></path><path d="M-69.08 652.73L86.86 658.82" stroke="hsla(43.89999999999998, 53.1%, 69.1%, 0.38)" stroke-width="1.5"></path><path d="M83.35 507.06L83.35 507.06" stroke="hsla(43.89999999999998, 53.1%, 69.1%, 0.38)" stroke-width="1.5"></path><path d="M83.35 507.06L216.96 502.13" stroke="hsla(43.89999999999998, 53.1%, 69.1%, 0.38)" stroke-width="1.5"></path><path d="M83.35 507.06L86.86 658.82" stroke="hsla(43.89999999999998, 53.1%, 69.1%, 0.38)" stroke-width="1.5"></path><path d="M86.86 658.82L86.86 658.82" stroke="hsla(43.89999999999998, 53.1%, 69.1%, 0.38)" stroke-width="1.5"></path><path d="M86.86 658.82L248.49 693.34" stroke="hsla(43.89999999999998, 53.1%, 69.1%, 0.38)" stroke-width="1.5"></path><path d="M86.86 658.82L216.96 502.13" stroke="hsla(43.89999999999998, 53.1%, 69.1%, 0.38)" stroke-width="1.5"></path><path d="M86.86 658.82L-100.47 518.51" stroke="hsla(43.89999999999998, 53.1%, 69.1%, 0.38)" stroke-width="1.5"></path><path d="M216.96 502.13L216.96 502.13" stroke="hsla(43.89999999999998, 53.1%, 69.1%, 0.38)" stroke-width="1.5"></path><path d="M216.96 502.13L387.56 522.77" stroke="hsla(43.89999999999998, 53.1%, 69.1%, 0.38)" stroke-width="1.5"></path><path d="M216.96 502.13L248.49 693.34" stroke="hsla(43.89999999999998, 53.1%, 69.1%, 0.38)" stroke-width="1.5"></path><path d="M248.49 693.34L248.49 693.34" stroke="hsla(43.89999999999998, 53.1%, 69.1%, 0.38)" stroke-width="1.5"></path><path d="M248.49 693.34L394.55 661.98" stroke="hsla(43.89999999999998, 53.1%, 69.1%, 0.38)" stroke-width="1.5"></path><path d="M387.56 522.77L387.56 522.77" stroke="hsla(43.89999999999998, 53.1%, 69.1%, 0.38)" stroke-width="1.5"></path><path d="M387.56 522.77L516.43 555.5" stroke="hsla(43.89999999999998, 53.1%, 69.1%, 0.38)" stroke-width="1.5"></path><path d="M387.56 522.77L394.55 661.98" stroke="hsla(43.89999999999998, 53.1%, 69.1%, 0.38)" stroke-width="1.5"></path><path d="M394.55 661.98L394.55 661.98" stroke="hsla(43.89999999999998, 53.1%, 69.1%, 0.38)" stroke-width="1.5"></path><path d="M394.55 661.98L506.63 686.59" stroke="hsla(43.89999999999998, 53.1%, 69.1%, 0.38)" stroke-width="1.5"></path><path d="M394.55 661.98L516.43 555.5" stroke="hsla(43.89999999999998, 53.1%, 69.1%, 0.38)" stroke-width="1.5"></path><path d="M394.55 661.98L216.96 502.13" stroke="hsla(43.89999999999998, 53.1%, 69.1%, 0.38)" stroke-width="1.5"></path><path d="M394.55 661.98L665.2 694.04" stroke="hsla(43.89999999999998, 53.1%, 69.1%, 0.38)" stroke-width="1.5"></path><path d="M516.43 555.5L516.43 555.5" stroke="hsla(43.89999999999998, 53.1%, 69.1%, 0.38)" stroke-width="1.5"></path><path d="M516.43 555.5L506.63 686.59" stroke="hsla(43.89999999999998, 53.1%, 69.1%, 0.38)" stroke-width="1.5"></path><path d="M516.43 555.5L665.54 501.89" stroke="hsla(43.89999999999998, 53.1%, 69.1%, 0.38)" stroke-width="1.5"></path><path d="M516.43 555.5L665.2 694.04" stroke="hsla(43.89999999999998, 53.1%, 69.1%, 0.38)" stroke-width="1.5"></path><path d="M516.43 555.5L248.49 693.34" stroke="hsla(43.89999999999998, 53.1%, 69.1%, 0.38)" stroke-width="1.5"></path><path d="M506.63 686.59L506.63 686.59" stroke="hsla(43.89999999999998, 53.1%, 69.1%, 0.38)" stroke-width="1.5"></path><path d="M506.63 686.59L665.2 694.04" stroke="hsla(43.89999999999998, 53.1%, 69.1%, 0.38)" stroke-width="1.5"></path><path d="M506.63 686.59L387.56 522.77" stroke="hsla(43.89999999999998, 53.1%, 69.1%, 0.38)" stroke-width="1.5"></path><path d="M506.63 686.59L665.54 501.89" stroke="hsla(43.89999999999998, 53.1%, 69.1%, 0.38)" stroke-width="1.5"></path><path d="M506.63 686.59L248.49 693.34" stroke="hsla(43.89999999999998, 53.1%, 69.1%, 0.38)" stroke-width="1.5"></path><path d="M665.54 501.89L665.54 501.89" stroke="hsla(43.89999999999998, 53.1%, 69.1%, 0.38)" stroke-width="1.5"></path><path d="M665.54 501.89L665.2 694.04" stroke="hsla(43.89999999999998, 53.1%, 69.1%, 0.38)" stroke-width="1.5"></path><path d="M665.54 501.89L816.59 375.21" stroke="hsla(43.89999999999998, 53.1%, 69.1%, 0.38)" stroke-width="1.5"></path><path d="M665.54 501.89L838.29 657.45" stroke="hsla(43.89999999999998, 53.1%, 69.1%, 0.38)" stroke-width="1.5"></path><path d="M665.2 694.04L665.2 694.04" stroke="hsla(43.89999999999998, 53.1%, 69.1%, 0.38)" stroke-width="1.5"></path><path d="M665.2 694.04L838.29 657.45" stroke="hsla(43.89999999999998, 53.1%, 69.1%, 0.38)" stroke-width="1.5"></path><path d="M816.59 375.21L816.59 375.21" stroke="hsla(43.89999999999998, 53.1%, 69.1%, 0.38)" stroke-width="1.5"></path><path d="M816.59 375.21L997.82 253.46" stroke="hsla(43.89999999999998, 53.1%, 69.1%, 0.38)" stroke-width="1.5"></path><path d="M838.29 657.45L838.29 657.45" stroke="hsla(43.89999999999998, 53.1%, 69.1%, 0.38)" stroke-width="1.5"></path><path d="M838.29 657.45L948 682.61" stroke="hsla(43.89999999999998, 53.1%, 69.1%, 0.38)" stroke-width="1.5"></path><path d="M838.29 657.45L979.4 527.41" stroke="hsla(43.89999999999998, 53.1%, 69.1%, 0.38)" stroke-width="1.5"></path><path d="M997.82 253.46L997.82 253.46" stroke="hsla(43.89999999999998, 53.1%, 69.1%, 0.38)" stroke-width="1.5"></path><path d="M997.82 253.46L1100.37 359.06" stroke="hsla(43.89999999999998, 53.1%, 69.1%, 0.38)" stroke-width="1.5"></path><path d="M997.82 253.46L1152.06 228.05" stroke="hsla(43.89999999999998, 53.1%, 69.1%, 0.38)" stroke-width="1.5"></path><path d="M948 682.61L948 682.61" stroke="hsla(43.89999999999998, 53.1%, 69.1%, 0.38)" stroke-width="1.5"></path><path d="M1152.06 228.05L1152.06 228.05" stroke="hsla(43.89999999999998, 53.1%, 69.1%, 0.38)" stroke-width="1.5"></path><path d="M1152.06 228.05L1260.06 251.41" stroke="hsla(43.89999999999998, 53.1%, 69.1%, 0.38)" stroke-width="1.5"></path><path d="M1152.06 228.05L1100.37 359.06" stroke="hsla(43.89999999999998, 53.1%, 69.1%, 0.38)" stroke-width="1.5"></path><path d="M1152.06 228.05L1251.32 381.29" stroke="hsla(43.89999999999998, 53.1%, 69.1%, 0.38)" stroke-width="1.5"></path><path d="M1152.06 228.05L996.6 402.6" stroke="hsla(43.89999999999998, 53.1%, 69.1%, 0.38)" stroke-width="1.5"></path><path d="M1100.37 359.06L1100.37 359.06" stroke="hsla(43.89999999999998, 53.1%, 69.1%, 0.38)" stroke-width="1.5"></path><path d="M1100.37 359.06L1251.32 381.29" stroke="hsla(43.89999999999998, 53.1%, 69.1%, 0.38)" stroke-width="1.5"></path><path d="M1157.66 537.81L1157.66 537.81" stroke="hsla(43.89999999999998, 53.1%, 69.1%, 0.38)" stroke-width="1.5"></path><path d="M1157.66 537.81L1114.88 650.63" stroke="hsla(43.89999999999998, 53.1%, 69.1%, 0.38)" stroke-width="1.5"></path><path d="M1157.66 537.81L1301.95 509.36" stroke="hsla(43.89999999999998, 53.1%, 69.1%, 0.38)" stroke-width="1.5"></path><path d="M1114.88 650.63L1114.88 650.63" stroke="hsla(43.89999999999998, 53.1%, 69.1%, 0.38)" stroke-width="1.5"></path><path d="M1114.88 650.63L948 682.61" stroke="hsla(43.89999999999998, 53.1%, 69.1%, 0.38)" stroke-width="1.5"></path><path d="M1114.88 650.63L1312.32 688.99" stroke="hsla(43.89999999999998, 53.1%, 69.1%, 0.38)" stroke-width="1.5"></path><path d="M1114.88 650.63L1301.95 509.36" stroke="hsla(43.89999999999998, 53.1%, 69.1%, 0.38)" stroke-width="1.5"></path><path d="M1245.45 -40.84L1245.45 -40.84" stroke="hsla(43.89999999999998, 53.1%, 69.1%, 0.38)" stroke-width="1.5"></path><path d="M1245.45 -40.84L1411.96 -58.01" stroke="hsla(43.89999999999998, 53.1%, 69.1%, 0.38)" stroke-width="1.5"></path><path d="M1245.45 -40.84L1448.85 101.62" stroke="hsla(43.89999999999998, 53.1%, 69.1%, 0.38)" stroke-width="1.5"></path><path d="M1260.06 251.41L1260.06 251.41" stroke="hsla(43.89999999999998, 53.1%, 69.1%, 0.38)" stroke-width="1.5"></path><path d="M1260.06 251.41L1251.32 381.29" stroke="hsla(43.89999999999998, 53.1%, 69.1%, 0.38)" stroke-width="1.5"></path><path d="M1260.06 251.41L1433.96 243.46" stroke="hsla(43.89999999999998, 53.1%, 69.1%, 0.38)" stroke-width="1.5"></path><path d="M1260.06 251.41L1100.37 359.06" stroke="hsla(43.89999999999998, 53.1%, 69.1%, 0.38)" stroke-width="1.5"></path><path d="M1251.32 381.29L1251.32 381.29" stroke="hsla(43.89999999999998, 53.1%, 69.1%, 0.38)" stroke-width="1.5"></path><path d="M1251.32 381.29L1301.95 509.36" stroke="hsla(43.89999999999998, 53.1%, 69.1%, 0.38)" stroke-width="1.5"></path><path d="M1251.32 381.29L1414.83 378.92" stroke="hsla(43.89999999999998, 53.1%, 69.1%, 0.38)" stroke-width="1.5"></path><path d="M1251.32 381.29L1157.66 537.81" stroke="hsla(43.89999999999998, 53.1%, 69.1%, 0.38)" stroke-width="1.5"></path><path d="M1301.95 509.36L1301.95 509.36" stroke="hsla(43.89999999999998, 53.1%, 69.1%, 0.38)" stroke-width="1.5"></path><path d="M1301.95 509.36L1431.54 496.94" stroke="hsla(43.89999999999998, 53.1%, 69.1%, 0.38)" stroke-width="1.5"></path><path d="M1301.95 509.36L1414.83 378.92" stroke="hsla(43.89999999999998, 53.1%, 69.1%, 0.38)" stroke-width="1.5"></path><path d="M1301.95 509.36L1312.32 688.99" stroke="hsla(43.89999999999998, 53.1%, 69.1%, 0.38)" stroke-width="1.5"></path><path d="M1312.32 688.99L1312.32 688.99" stroke="hsla(43.89999999999998, 53.1%, 69.1%, 0.38)" stroke-width="1.5"></path><path d="M1312.32 688.99L1397.55 692.32" stroke="hsla(43.89999999999998, 53.1%, 69.1%, 0.38)" stroke-width="1.5"></path><path d="M1312.32 688.99L1157.66 537.81" stroke="hsla(43.89999999999998, 53.1%, 69.1%, 0.38)" stroke-width="1.5"></path><path d="M1312.32 688.99L1431.54 496.94" stroke="hsla(43.89999999999998, 53.1%, 69.1%, 0.38)" stroke-width="1.5"></path><path d="M1312.32 688.99L1598.77 697.55" stroke="hsla(43.89999999999998, 53.1%, 69.1%, 0.38)" stroke-width="1.5"></path><path d="M1411.96 -58.01L1411.96 -58.01" stroke="hsla(43.89999999999998, 53.1%, 69.1%, 0.38)" stroke-width="1.5"></path><path d="M1411.96 -58.01L1448.85 101.62" stroke="hsla(43.89999999999998, 53.1%, 69.1%, 0.38)" stroke-width="1.5"></path><path d="M1448.85 101.62L1448.85 101.62" stroke="hsla(43.89999999999998, 53.1%, 69.1%, 0.38)" stroke-width="1.5"></path><path d="M1448.85 101.62L1550.12 56.57" stroke="hsla(43.89999999999998, 53.1%, 69.1%, 0.38)" stroke-width="1.5"></path><path d="M1448.85 101.62L1433.96 243.46" stroke="hsla(43.89999999999998, 53.1%, 69.1%, 0.38)" stroke-width="1.5"></path><path d="M1448.85 101.62L1544.01 236.6" stroke="hsla(43.89999999999998, 53.1%, 69.1%, 0.38)" stroke-width="1.5"></path><path d="M1448.85 101.62L1592.7 -42.41" stroke="hsla(43.89999999999998, 53.1%, 69.1%, 0.38)" stroke-width="1.5"></path><path d="M1414.83 378.92L1414.83 378.92" stroke="hsla(43.89999999999998, 53.1%, 69.1%, 0.38)" stroke-width="1.5"></path><path d="M1414.83 378.92L1431.54 496.94" stroke="hsla(43.89999999999998, 53.1%, 69.1%, 0.38)" stroke-width="1.5"></path><path d="M1414.83 378.92L1558.87 348.22" stroke="hsla(43.89999999999998, 53.1%, 69.1%, 0.38)" stroke-width="1.5"></path><path d="M1431.54 496.94L1431.54 496.94" stroke="hsla(43.89999999999998, 53.1%, 69.1%, 0.38)" stroke-width="1.5"></path><path d="M1431.54 496.94L1610.07 511.48" stroke="hsla(43.89999999999998, 53.1%, 69.1%, 0.38)" stroke-width="1.5"></path><path d="M1431.54 496.94L1558.87 348.22" stroke="hsla(43.89999999999998, 53.1%, 69.1%, 0.38)" stroke-width="1.5"></path><path d="M1431.54 496.94L1397.55 692.32" stroke="hsla(43.89999999999998, 53.1%, 69.1%, 0.38)" stroke-width="1.5"></path><path d="M1431.54 496.94L1251.32 381.29" stroke="hsla(43.89999999999998, 53.1%, 69.1%, 0.38)" stroke-width="1.5"></path><path d="M1397.55 692.32L1397.55 692.32" stroke="hsla(43.89999999999998, 53.1%, 69.1%, 0.38)" stroke-width="1.5"></path><path d="M1397.55 692.32L1598.77 697.55" stroke="hsla(43.89999999999998, 53.1%, 69.1%, 0.38)" stroke-width="1.5"></path><path d="M1592.7 -42.41L1592.7 -42.41" stroke="hsla(43.89999999999998, 53.1%, 69.1%, 0.38)" stroke-width="1.5"></path><path d="M1592.7 -42.41L1550.12 56.57" stroke="hsla(43.89999999999998, 53.1%, 69.1%, 0.38)" stroke-width="1.5"></path><path d="M1592.7 -42.41L1411.96 -58.01" stroke="hsla(43.89999999999998, 53.1%, 69.1%, 0.38)" stroke-width="1.5"></path><path d="M1550.12 56.57L1550.12 56.57" stroke="hsla(43.89999999999998, 53.1%, 69.1%, 0.38)" stroke-width="1.5"></path><path d="M1544.01 236.6L1544.01 236.6" stroke="hsla(43.89999999999998, 53.1%, 69.1%, 0.38)" stroke-width="1.5"></path><path d="M1544.01 236.6L1558.87 348.22" stroke="hsla(43.89999999999998, 53.1%, 69.1%, 0.38)" stroke-width="1.5"></path><path d="M1544.01 236.6L1550.12 56.57" stroke="hsla(43.89999999999998, 53.1%, 69.1%, 0.38)" stroke-width="1.5"></path><path d="M1544.01 236.6L1414.83 378.92" stroke="hsla(43.89999999999998, 53.1%, 69.1%, 0.38)" stroke-width="1.5"></path><path d="M1544.01 236.6L1610.07 511.48" stroke="hsla(43.89999999999998, 53.1%, 69.1%, 0.38)" stroke-width="1.5"></path><path d="M1558.87 348.22L1558.87 348.22" stroke="hsla(43.89999999999998, 53.1%, 69.1%, 0.38)" stroke-width="1.5"></path><path d="M1598.77 697.55L1598.77 697.55" stroke="hsla(43.89999999999998, 53.1%, 69.1%, 0.38)" stroke-width="1.5"></path><path d="M1598.77 697.55L1610.07 511.48" stroke="hsla(43.89999999999998, 53.1%, 69.1%, 0.38)" stroke-width="1.5"></path><circle r="25" cx="846.65" cy="534.61" fill="url(#SvgjsRadialGradient3377)"></circle><circle r="25" cx="996.6" cy="402.6" fill="url(#SvgjsRadialGradient3377)"></circle><circle r="25" cx="979.4" cy="527.41" fill="url(#SvgjsRadialGradient3377)"></circle><circle r="25" cx="1433.96" cy="243.46" fill="url(#SvgjsRadialGradient3377)"></circle><circle r="25" cx="1610.07" cy="511.48" fill="url(#SvgjsRadialGradient3377)"></circle><circle r="5" cx="-100.47" cy="518.51" fill="rgba(244, 238, 220, 0.69)"></circle><circle r="5" cx="-69.08" cy="652.73" fill="rgba(244, 238, 220, 0.69)"></circle><circle r="5" cx="83.35" cy="507.06" fill="rgba(244, 238, 220, 0.69)"></circle><circle r="5" cx="86.86" cy="658.82" fill="rgba(244, 238, 220, 0.69)"></circle><circle r="5" cx="216.96" cy="502.13" fill="rgba(244, 238, 220, 0.69)"></circle><circle r="5" cx="248.49" cy="693.34" fill="rgba(244, 238, 220, 0.69)"></circle><circle r="5" cx="387.56" cy="522.77" fill="rgba(244, 238, 220, 0.69)"></circle><circle r="5" cx="394.55" cy="661.98" fill="rgba(244, 238, 220, 0.69)"></circle><circle r="5" cx="516.43" cy="555.5" fill="rgba(244, 238, 220, 0.69)"></circle><circle r="5" cx="506.63" cy="686.59" fill="rgba(244, 238, 220, 0.69)"></circle><circle r="5" cx="665.54" cy="501.89" fill="rgba(244, 238, 220, 0.69)"></circle><circle r="5" cx="665.2" cy="694.04" fill="rgba(244, 238, 220, 0.69)"></circle><circle r="5" cx="816.59" cy="375.21" fill="rgba(244, 238, 220, 0.69)"></circle><circle r="5" cx="838.29" cy="657.45" fill="rgba(244, 238, 220, 0.69)"></circle><circle r="5" cx="997.82" cy="253.46" fill="rgba(244, 238, 220, 0.69)"></circle><circle r="5" cx="948" cy="682.61" fill="rgba(244, 238, 220, 0.69)"></circle><circle r="5" cx="1152.06" cy="228.05" fill="rgba(244, 238, 220, 0.69)"></circle><circle r="5" cx="1100.37" cy="359.06" fill="rgba(244, 238, 220, 0.69)"></circle><circle r="5" cx="1157.66" cy="537.81" fill="rgba(244, 238, 220, 0.69)"></circle><circle r="5" cx="1114.88" cy="650.63" fill="rgba(244, 238, 220, 0.69)"></circle><circle r="5" cx="1245.45" cy="-40.84" fill="rgba(244, 238, 220, 0.69)"></circle><circle r="5" cx="1260.06" cy="251.41" fill="rgba(244, 238, 220, 0.69)"></circle><circle r="5" cx="1251.32" cy="381.29" fill="rgba(244, 238, 220, 0.69)"></circle><circle r="5" cx="1301.95" cy="509.36" fill="rgba(244, 238, 220, 0.69)"></circle><circle r="5" cx="1312.32" cy="688.99" fill="rgba(244, 238, 220, 0.69)"></circle><circle r="5" cx="1411.96" cy="-58.01" fill="rgba(244, 238, 220, 0.69)"></circle><circle r="5" cx="1448.85" cy="101.62" fill="rgba(244, 238, 220, 0.69)"></circle><circle r="5" cx="1414.83" cy="378.92" fill="rgba(244, 238, 220, 0.69)"></circle><circle r="5" cx="1431.54" cy="496.94" fill="rgba(244, 238, 220, 0.69)"></circle><circle r="5" cx="1397.55" cy="692.32" fill="rgba(244, 238, 220, 0.69)"></circle><circle r="5" cx="1592.7" cy="-42.41" fill="rgba(244, 238, 220, 0.69)"></circle><circle r="5" cx="1550.12" cy="56.57" fill="rgba(244, 238, 220, 0.69)"></circle><circle r="5" cx="1544.01" cy="236.6" fill="rgba(244, 238, 220, 0.69)"></circle><circle r="5" cx="1558.87" cy="348.22" fill="rgba(244, 238, 220, 0.69)"></circle><circle r="5" cx="1598.77" cy="697.55" fill="rgba(244, 238, 220, 0.69)"></circle></g><defs><mask id="SvgjsMask3375"><rect width="1440" height="560" fill="#ffffff"></rect></mask><linearGradient x1="84.72%" y1="-39.29%" x2="15.28%" y2="139.29%" gradientUnits="userSpaceOnUse" id="SvgjsLinearGradient3376"><stop stop-color="rgba(33, 35, 66, 1)" offset="0.11"></stop><stop stop-color="rgba(0, 0, 0, 1)" offset="0.91"></stop></linearGradient><radialGradient id="SvgjsRadialGradient3377"><stop stop-color="#ffffff" offset="0.1"></stop><stop stop-color="rgba(199, 165, 72, 0.38)" offset="0.2"></stop><stop stop-color="rgba(199, 165, 72, 0)" offset="1"></stop></radialGradient></defs></svg>