<svg xmlns="http://www.w3.org/2000/svg" version="1.1" xmlns:xlink="http://www.w3.org/1999/xlink" xmlns:svgjs="http://svgjs.com/svgjs" width="1440" height="560" preserveAspectRatio="none" viewBox="0 0 1440 560"><g mask="url(&quot;#SvgjsMask1002&quot;)" fill="none"><path d="M-101.68 389.72L-101.68 389.72" stroke="#132e65" stroke-width="1.5"></path><path d="M-101.68 389.72L-97.9 543.82" stroke="#132e65" stroke-width="1.5"></path><path d="M-101.68 389.72L91.16 394.8" stroke="#132e65" stroke-width="1.5"></path><path d="M-101.68 389.72L90.98 489.98" stroke="#132e65" stroke-width="1.5"></path><path d="M-101.68 389.72L-93.5 693.33" stroke="#132e65" stroke-width="1.5"></path><path d="M-97.9 543.82L-97.9 543.82" stroke="#132e65" stroke-width="1.5"></path><path d="M-97.9 543.82L-93.5 693.33" stroke="#132e65" stroke-width="1.5"></path><path d="M-97.9 543.82L90.98 489.98" stroke="#132e65" stroke-width="1.5"></path><path d="M-93.5 693.33L-93.5 693.33" stroke="#132e65" stroke-width="1.5"></path><path d="M-93.5 693.33L72.26 679.16" stroke="#132e65" stroke-width="1.5"></path><path d="M-93.5 693.33L90.98 489.98" stroke="#132e65" stroke-width="1.5"></path><path d="M91.16 394.8L91.16 394.8" stroke="#132e65" stroke-width="1.5"></path><path d="M91.16 394.8L90.98 489.98" stroke="#132e65" stroke-width="1.5"></path><path d="M91.16 394.8L234.68 340.32" stroke="#132e65" stroke-width="1.5"></path><path d="M90.98 489.98L90.98 489.98" stroke="#132e65" stroke-width="1.5"></path><path d="M90.98 489.98L224.09 559.03" stroke="#132e65" stroke-width="1.5"></path><path d="M90.98 489.98L72.26 679.16" stroke="#132e65" stroke-width="1.5"></path><path d="M72.26 679.16L72.26 679.16" stroke="#132e65" stroke-width="1.5"></path><path d="M72.26 679.16L237.57 643.56" stroke="#132e65" stroke-width="1.5"></path><path d="M72.26 679.16L224.09 559.03" stroke="#132e65" stroke-width="1.5"></path><path d="M72.26 679.16L-97.9 543.82" stroke="#132e65" stroke-width="1.5"></path><path d="M72.26 679.16L353.78 699.97" stroke="#132e65" stroke-width="1.5"></path><path d="M234.68 340.32L234.68 340.32" stroke="#132e65" stroke-width="1.5"></path><path d="M234.68 340.32L351.24 364.53" stroke="#132e65" stroke-width="1.5"></path><path d="M234.68 340.32L90.98 489.98" stroke="#132e65" stroke-width="1.5"></path><path d="M234.68 340.32L224.09 559.03" stroke="#132e65" stroke-width="1.5"></path><path d="M234.68 340.32L406.67 496.78" stroke="#132e65" stroke-width="1.5"></path><path d="M224.09 559.03L224.09 559.03" stroke="#132e65" stroke-width="1.5"></path><path d="M224.09 559.03L237.57 643.56" stroke="#132e65" stroke-width="1.5"></path><path d="M224.09 559.03L353.78 699.97" stroke="#132e65" stroke-width="1.5"></path><path d="M224.09 559.03L406.67 496.78" stroke="#132e65" stroke-width="1.5"></path><path d="M224.09 559.03L91.16 394.8" stroke="#132e65" stroke-width="1.5"></path><path d="M237.57 643.56L237.57 643.56" stroke="#132e65" stroke-width="1.5"></path><path d="M237.57 643.56L353.78 699.97" stroke="#132e65" stroke-width="1.5"></path><path d="M351.24 364.53L351.24 364.53" stroke="#132e65" stroke-width="1.5"></path><path d="M351.24 364.53L406.67 496.78" stroke="#132e65" stroke-width="1.5"></path><path d="M351.24 364.53L557.16 410.25" stroke="#132e65" stroke-width="1.5"></path><path d="M406.67 496.78L406.67 496.78" stroke="#132e65" stroke-width="1.5"></path><path d="M406.67 496.78L504.82 556.88" stroke="#132e65" stroke-width="1.5"></path><path d="M353.78 699.97L353.78 699.97" stroke="#132e65" stroke-width="1.5"></path><path d="M353.78 699.97L525.56 646.1" stroke="#132e65" stroke-width="1.5"></path><path d="M353.78 699.97L504.82 556.88" stroke="#132e65" stroke-width="1.5"></path><path d="M557.16 410.25L557.16 410.25" stroke="#132e65" stroke-width="1.5"></path><path d="M557.16 410.25L673.24 376.5" stroke="#132e65" stroke-width="1.5"></path><path d="M557.16 410.25L504.82 556.88" stroke="#132e65" stroke-width="1.5"></path><path d="M557.16 410.25L406.67 496.78" stroke="#132e65" stroke-width="1.5"></path><path d="M557.16 410.25L709.61 511.83" stroke="#132e65" stroke-width="1.5"></path><path d="M557.16 410.25L525.56 646.1" stroke="#132e65" stroke-width="1.5"></path><path d="M504.82 556.88L504.82 556.88" stroke="#132e65" stroke-width="1.5"></path><path d="M504.82 556.88L525.56 646.1" stroke="#132e65" stroke-width="1.5"></path><path d="M504.82 556.88L642.07 645.49" stroke="#132e65" stroke-width="1.5"></path><path d="M525.56 646.1L525.56 646.1" stroke="#132e65" stroke-width="1.5"></path><path d="M525.56 646.1L642.07 645.49" stroke="#132e65" stroke-width="1.5"></path><path d="M525.56 646.1L406.67 496.78" stroke="#132e65" stroke-width="1.5"></path><path d="M525.56 646.1L709.61 511.83" stroke="#132e65" stroke-width="1.5"></path><path d="M687.64 204.72L687.64 204.72" stroke="#132e65" stroke-width="1.5"></path><path d="M687.64 204.72L854.4 218.5" stroke="#132e65" stroke-width="1.5"></path><path d="M687.64 204.72L673.24 376.5" stroke="#132e65" stroke-width="1.5"></path><path d="M687.64 204.72L801.87 379.1" stroke="#132e65" stroke-width="1.5"></path><path d="M687.64 204.72L557.16 410.25" stroke="#132e65" stroke-width="1.5"></path><path d="M673.24 376.5L673.24 376.5" stroke="#132e65" stroke-width="1.5"></path><path d="M673.24 376.5L801.87 379.1" stroke="#132e65" stroke-width="1.5"></path><path d="M709.61 511.83L709.61 511.83" stroke="#132e65" stroke-width="1.5"></path><path d="M709.61 511.83L843.31 538.08" stroke="#132e65" stroke-width="1.5"></path><path d="M709.61 511.83L673.24 376.5" stroke="#132e65" stroke-width="1.5"></path><path d="M709.61 511.83L642.07 645.49" stroke="#132e65" stroke-width="1.5"></path><path d="M709.61 511.83L801.87 379.1" stroke="#132e65" stroke-width="1.5"></path><path d="M642.07 645.49L642.07 645.49" stroke="#132e65" stroke-width="1.5"></path><path d="M854.4 218.5L854.4 218.5" stroke="#132e65" stroke-width="1.5"></path><path d="M854.4 218.5L963.49 250.91" stroke="#132e65" stroke-width="1.5"></path><path d="M854.4 218.5L801.87 379.1" stroke="#132e65" stroke-width="1.5"></path><path d="M854.4 218.5L976.76 404.5" stroke="#132e65" stroke-width="1.5"></path><path d="M801.87 379.1L801.87 379.1" stroke="#132e65" stroke-width="1.5"></path><path d="M801.87 379.1L843.31 538.08" stroke="#132e65" stroke-width="1.5"></path><path d="M801.87 379.1L976.76 404.5" stroke="#132e65" stroke-width="1.5"></path><path d="M801.87 379.1L963.49 250.91" stroke="#132e65" stroke-width="1.5"></path><path d="M843.31 538.08L843.31 538.08" stroke="#132e65" stroke-width="1.5"></path><path d="M843.31 538.08L967.74 505.98" stroke="#132e65" stroke-width="1.5"></path><path d="M962.07 -44.48L962.07 -44.48" stroke="#132e65" stroke-width="1.5"></path><path d="M962.07 -44.48L1147.03 -97.64" stroke="#132e65" stroke-width="1.5"></path><path d="M962.07 -44.48L1141.2 44.65" stroke="#132e65" stroke-width="1.5"></path><path d="M962.07 -44.48L854.4 218.5" stroke="#132e65" stroke-width="1.5"></path><path d="M963.49 250.91L963.49 250.91" stroke="#132e65" stroke-width="1.5"></path><path d="M963.49 250.91L976.76 404.5" stroke="#132e65" stroke-width="1.5"></path><path d="M963.49 250.91L1142.46 239.54" stroke="#132e65" stroke-width="1.5"></path><path d="M963.49 250.91L1101.18 372.73" stroke="#132e65" stroke-width="1.5"></path><path d="M976.76 404.5L976.76 404.5" stroke="#132e65" stroke-width="1.5"></path><path d="M976.76 404.5L967.74 505.98" stroke="#132e65" stroke-width="1.5"></path><path d="M976.76 404.5L1101.18 372.73" stroke="#132e65" stroke-width="1.5"></path><path d="M976.76 404.5L843.31 538.08" stroke="#132e65" stroke-width="1.5"></path><path d="M976.76 404.5L1121.56 535.2" stroke="#132e65" stroke-width="1.5"></path><path d="M967.74 505.98L967.74 505.98" stroke="#132e65" stroke-width="1.5"></path><path d="M967.74 505.98L1121.56 535.2" stroke="#132e65" stroke-width="1.5"></path><path d="M967.74 505.98L1101.18 372.73" stroke="#132e65" stroke-width="1.5"></path><path d="M967.74 505.98L964.08 703.78" stroke="#132e65" stroke-width="1.5"></path><path d="M967.74 505.98L801.87 379.1" stroke="#132e65" stroke-width="1.5"></path><path d="M964.08 703.78L964.08 703.78" stroke="#132e65" stroke-width="1.5"></path><path d="M964.08 703.78L1136.35 678.7" stroke="#132e65" stroke-width="1.5"></path><path d="M964.08 703.78L843.31 538.08" stroke="#132e65" stroke-width="1.5"></path><path d="M964.08 703.78L1121.56 535.2" stroke="#132e65" stroke-width="1.5"></path><path d="M964.08 703.78L976.76 404.5" stroke="#132e65" stroke-width="1.5"></path><path d="M1147.03 -97.64L1147.03 -97.64" stroke="#132e65" stroke-width="1.5"></path><path d="M1147.03 -97.64L1141.2 44.65" stroke="#132e65" stroke-width="1.5"></path><path d="M1147.03 -97.64L1299.11 -82.52" stroke="#132e65" stroke-width="1.5"></path><path d="M1147.03 -97.64L1280.49 91.02" stroke="#132e65" stroke-width="1.5"></path><path d="M1141.2 44.65L1141.2 44.65" stroke="#132e65" stroke-width="1.5"></path><path d="M1141.2 44.65L1280.49 91.02" stroke="#132e65" stroke-width="1.5"></path><path d="M1141.2 44.65L1142.46 239.54" stroke="#132e65" stroke-width="1.5"></path><path d="M1141.2 44.65L1299.11 -82.52" stroke="#132e65" stroke-width="1.5"></path><path d="M1141.2 44.65L1239.31 256.35" stroke="#132e65" stroke-width="1.5"></path><path d="M1142.46 239.54L1142.46 239.54" stroke="#132e65" stroke-width="1.5"></path><path d="M1142.46 239.54L1239.31 256.35" stroke="#132e65" stroke-width="1.5"></path><path d="M1142.46 239.54L1101.18 372.73" stroke="#132e65" stroke-width="1.5"></path><path d="M1142.46 239.54L1283.12 362.55" stroke="#132e65" stroke-width="1.5"></path><path d="M1101.18 372.73L1101.18 372.73" stroke="#132e65" stroke-width="1.5"></path><path d="M1101.18 372.73L1121.56 535.2" stroke="#132e65" stroke-width="1.5"></path><path d="M1101.18 372.73L1239.31 256.35" stroke="#132e65" stroke-width="1.5"></path><path d="M1121.56 535.2L1121.56 535.2" stroke="#132e65" stroke-width="1.5"></path><path d="M1121.56 535.2L1136.35 678.7" stroke="#132e65" stroke-width="1.5"></path><path d="M1121.56 535.2L1308.1 495.18" stroke="#132e65" stroke-width="1.5"></path><path d="M1136.35 678.7L1136.35 678.7" stroke="#132e65" stroke-width="1.5"></path><path d="M1136.35 678.7L1269.62 671.56" stroke="#132e65" stroke-width="1.5"></path><path d="M1299.11 -82.52L1299.11 -82.52" stroke="#132e65" stroke-width="1.5"></path><path d="M1299.11 -82.52L1421.13 -69.89" stroke="#132e65" stroke-width="1.5"></path><path d="M1299.11 -82.52L1280.49 91.02" stroke="#132e65" stroke-width="1.5"></path><path d="M1299.11 -82.52L1431.3 71.12" stroke="#132e65" stroke-width="1.5"></path><path d="M1280.49 91.02L1280.49 91.02" stroke="#132e65" stroke-width="1.5"></path><path d="M1280.49 91.02L1431.3 71.12" stroke="#132e65" stroke-width="1.5"></path><path d="M1280.49 91.02L1239.31 256.35" stroke="#132e65" stroke-width="1.5"></path><path d="M1280.49 91.02L1142.46 239.54" stroke="#132e65" stroke-width="1.5"></path><path d="M1239.31 256.35L1239.31 256.35" stroke="#132e65" stroke-width="1.5"></path><path d="M1239.31 256.35L1283.12 362.55" stroke="#132e65" stroke-width="1.5"></path><path d="M1239.31 256.35L1413.16 247.84" stroke="#132e65" stroke-width="1.5"></path><path d="M1239.31 256.35L1425.62 347.61" stroke="#132e65" stroke-width="1.5"></path><path d="M1283.12 362.55L1283.12 362.55" stroke="#132e65" stroke-width="1.5"></path><path d="M1283.12 362.55L1308.1 495.18" stroke="#132e65" stroke-width="1.5"></path><path d="M1283.12 362.55L1425.62 347.61" stroke="#132e65" stroke-width="1.5"></path><path d="M1283.12 362.55L1413.16 247.84" stroke="#132e65" stroke-width="1.5"></path><path d="M1283.12 362.55L1101.18 372.73" stroke="#132e65" stroke-width="1.5"></path><path d="M1283.12 362.55L1399.11 504.84" stroke="#132e65" stroke-width="1.5"></path><path d="M1308.1 495.18L1308.1 495.18" stroke="#132e65" stroke-width="1.5"></path><path d="M1308.1 495.18L1399.11 504.84" stroke="#132e65" stroke-width="1.5"></path><path d="M1269.62 671.56L1269.62 671.56" stroke="#132e65" stroke-width="1.5"></path><path d="M1269.62 671.56L1308.1 495.18" stroke="#132e65" stroke-width="1.5"></path><path d="M1269.62 671.56L1457.96 638.96" stroke="#132e65" stroke-width="1.5"></path><path d="M1269.62 671.56L1121.56 535.2" stroke="#132e65" stroke-width="1.5"></path><path d="M1269.62 671.56L1399.11 504.84" stroke="#132e65" stroke-width="1.5"></path><path d="M1421.13 -69.89L1421.13 -69.89" stroke="#132e65" stroke-width="1.5"></path><path d="M1421.13 -69.89L1431.3 71.12" stroke="#132e65" stroke-width="1.5"></path><path d="M1421.13 -69.89L1562.97 -88.88" stroke="#132e65" stroke-width="1.5"></path><path d="M1421.13 -69.89L1280.49 91.02" stroke="#132e65" stroke-width="1.5"></path><path d="M1431.3 71.12L1431.3 71.12" stroke="#132e65" stroke-width="1.5"></path><path d="M1431.3 71.12L1549.97 112.36" stroke="#132e65" stroke-width="1.5"></path><path d="M1431.3 71.12L1413.16 247.84" stroke="#132e65" stroke-width="1.5"></path><path d="M1431.3 71.12L1575.57 211.16" stroke="#132e65" stroke-width="1.5"></path><path d="M1413.16 247.84L1413.16 247.84" stroke="#132e65" stroke-width="1.5"></path><path d="M1413.16 247.84L1425.62 347.61" stroke="#132e65" stroke-width="1.5"></path><path d="M1413.16 247.84L1575.57 211.16" stroke="#132e65" stroke-width="1.5"></path><path d="M1425.62 347.61L1425.62 347.61" stroke="#132e65" stroke-width="1.5"></path><path d="M1425.62 347.61L1399.11 504.84" stroke="#132e65" stroke-width="1.5"></path><path d="M1425.62 347.61L1601.95 384.43" stroke="#132e65" stroke-width="1.5"></path><path d="M1425.62 347.61L1308.1 495.18" stroke="#132e65" stroke-width="1.5"></path><path d="M1425.62 347.61L1575.57 211.16" stroke="#132e65" stroke-width="1.5"></path><path d="M1399.11 504.84L1399.11 504.84" stroke="#132e65" stroke-width="1.5"></path><path d="M1399.11 504.84L1457.96 638.96" stroke="#132e65" stroke-width="1.5"></path><path d="M1457.96 638.96L1457.96 638.96" stroke="#132e65" stroke-width="1.5"></path><path d="M1457.96 638.96L1585.6 670.26" stroke="#132e65" stroke-width="1.5"></path><path d="M1457.96 638.96L1587.38 556.32" stroke="#132e65" stroke-width="1.5"></path><path d="M1457.96 638.96L1308.1 495.18" stroke="#132e65" stroke-width="1.5"></path><path d="M1562.97 -88.88L1562.97 -88.88" stroke="#132e65" stroke-width="1.5"></path><path d="M1562.97 -88.88L1549.97 112.36" stroke="#132e65" stroke-width="1.5"></path><path d="M1562.97 -88.88L1431.3 71.12" stroke="#132e65" stroke-width="1.5"></path><path d="M1562.97 -88.88L1299.11 -82.52" stroke="#132e65" stroke-width="1.5"></path><path d="M1549.97 112.36L1549.97 112.36" stroke="#132e65" stroke-width="1.5"></path><path d="M1549.97 112.36L1575.57 211.16" stroke="#132e65" stroke-width="1.5"></path><path d="M1549.97 112.36L1413.16 247.84" stroke="#132e65" stroke-width="1.5"></path><path d="M1549.97 112.36L1421.13 -69.89" stroke="#132e65" stroke-width="1.5"></path><path d="M1549.97 112.36L1425.62 347.61" stroke="#132e65" stroke-width="1.5"></path><path d="M1575.57 211.16L1575.57 211.16" stroke="#132e65" stroke-width="1.5"></path><path d="M1575.57 211.16L1601.95 384.43" stroke="#132e65" stroke-width="1.5"></path><path d="M1601.95 384.43L1601.95 384.43" stroke="#132e65" stroke-width="1.5"></path><path d="M1601.95 384.43L1587.38 556.32" stroke="#132e65" stroke-width="1.5"></path><path d="M1601.95 384.43L1413.16 247.84" stroke="#132e65" stroke-width="1.5"></path><path d="M1601.95 384.43L1399.11 504.84" stroke="#132e65" stroke-width="1.5"></path><path d="M1601.95 384.43L1549.97 112.36" stroke="#132e65" stroke-width="1.5"></path><path d="M1587.38 556.32L1587.38 556.32" stroke="#132e65" stroke-width="1.5"></path><path d="M1587.38 556.32L1585.6 670.26" stroke="#132e65" stroke-width="1.5"></path><path d="M1585.6 670.26L1585.6 670.26" stroke="#132e65" stroke-width="1.5"></path><circle r="5" cx="-101.68" cy="389.72" fill="#132e65"></circle><circle r="5" cx="-97.9" cy="543.82" fill="#132e65"></circle><circle r="5" cx="-93.5" cy="693.33" fill="#132e65"></circle><circle r="5" cx="91.16" cy="394.8" fill="#132e65"></circle><circle r="5" cx="90.98" cy="489.98" fill="#132e65"></circle><circle r="5" cx="72.26" cy="679.16" fill="#132e65"></circle><circle r="5" cx="234.68" cy="340.32" fill="#132e65"></circle><circle r="5" cx="224.09" cy="559.03" fill="#132e65"></circle><circle r="5" cx="237.57" cy="643.56" fill="#132e65"></circle><circle r="5" cx="351.24" cy="364.53" fill="#132e65"></circle><circle r="5" cx="406.67" cy="496.78" fill="#132e65"></circle><circle r="5" cx="353.78" cy="699.97" fill="#132e65"></circle><circle r="5" cx="557.16" cy="410.25" fill="#132e65"></circle><circle r="5" cx="504.82" cy="556.88" fill="#132e65"></circle><circle r="5" cx="525.56" cy="646.1" fill="#132e65"></circle><circle r="5" cx="687.64" cy="204.72" fill="#132e65"></circle><circle r="5" cx="673.24" cy="376.5" fill="#132e65"></circle><circle r="5" cx="709.61" cy="511.83" fill="#132e65"></circle><circle r="5" cx="642.07" cy="645.49" fill="#132e65"></circle><circle r="5" cx="854.4" cy="218.5" fill="#132e65"></circle><circle r="5" cx="801.87" cy="379.1" fill="#132e65"></circle><circle r="5" cx="843.31" cy="538.08" fill="#132e65"></circle><circle r="5" cx="962.07" cy="-44.48" fill="#132e65"></circle><circle r="5" cx="963.49" cy="250.91" fill="#132e65"></circle><circle r="5" cx="976.76" cy="404.5" fill="#132e65"></circle><circle r="5" cx="967.74" cy="505.98" fill="#132e65"></circle><circle r="5" cx="964.08" cy="703.78" fill="#132e65"></circle><circle r="5" cx="1147.03" cy="-97.64" fill="#132e65"></circle><circle r="5" cx="1141.2" cy="44.65" fill="#132e65"></circle><circle r="5" cx="1142.46" cy="239.54" fill="#132e65"></circle><circle r="5" cx="1101.18" cy="372.73" fill="#132e65"></circle><circle r="5" cx="1121.56" cy="535.2" fill="#132e65"></circle><circle r="5" cx="1136.35" cy="678.7" fill="#132e65"></circle><circle r="5" cx="1299.11" cy="-82.52" fill="#132e65"></circle><circle r="5" cx="1280.49" cy="91.02" fill="#132e65"></circle><circle r="5" cx="1239.31" cy="256.35" fill="#132e65"></circle><circle r="5" cx="1283.12" cy="362.55" fill="#132e65"></circle><circle r="5" cx="1308.1" cy="495.18" fill="#132e65"></circle><circle r="5" cx="1269.62" cy="671.56" fill="#132e65"></circle><circle r="5" cx="1421.13" cy="-69.89" fill="#132e65"></circle><circle r="5" cx="1431.3" cy="71.12" fill="#132e65"></circle><circle r="5" cx="1413.16" cy="247.84" fill="#132e65"></circle><circle r="5" cx="1425.62" cy="347.61" fill="#132e65"></circle><circle r="5" cx="1399.11" cy="504.84" fill="#132e65"></circle><circle r="5" cx="1457.96" cy="638.96" fill="#132e65"></circle><circle r="5" cx="1562.97" cy="-88.88" fill="#132e65"></circle><circle r="5" cx="1549.97" cy="112.36" fill="#132e65"></circle><circle r="5" cx="1575.57" cy="211.16" fill="#132e65"></circle><circle r="5" cx="1601.95" cy="384.43" fill="#132e65"></circle><circle r="5" cx="1587.38" cy="556.32" fill="#132e65"></circle><circle r="5" cx="1585.6" cy="670.26" fill="#132e65"></circle><path d="M704.08 550.43L704.08 550.43" stroke="hsl(228.5, 77.2%, 51.5%)" stroke-width="1.5"></path><path d="M704.08 550.43L663.35 685.17" stroke="hsl(228.5, 77.2%, 51.5%)" stroke-width="1.5"></path><path d="M704.08 550.43L850.37 535.61" stroke="hsl(228.5, 77.2%, 51.5%)" stroke-width="1.5"></path><path d="M704.08 550.43L641.28 379.7" stroke="hsl(228.5, 77.2%, 51.5%)" stroke-width="1.5"></path><path d="M704.08 550.43L797.62 354.93" stroke="hsl(228.5, 77.2%, 51.5%)" stroke-width="1.5"></path><path d="M704.08 550.43L492.64 676.33" stroke="hsl(228.5, 77.2%, 51.5%)" stroke-width="1.5"></path><path d="M704.08 550.43L976.53 528.45" stroke="hsl(228.5, 77.2%, 51.5%)" stroke-width="1.5"></path><path d="M1104.66 406.36L1104.66 406.36" stroke="hsl(228.5, 77.2%, 51.5%)" stroke-width="1.5"></path><path d="M1104.66 406.36L1137.92 511.75" stroke="hsl(228.5, 77.2%, 51.5%)" stroke-width="1.5"></path><path d="M1104.66 406.36L939.01 400.05" stroke="hsl(228.5, 77.2%, 51.5%)" stroke-width="1.5"></path><path d="M1104.66 406.36L1266.85 354.91" stroke="hsl(228.5, 77.2%, 51.5%)" stroke-width="1.5"></path><path d="M1104.66 406.36L976.53 528.45" stroke="hsl(228.5, 77.2%, 51.5%)" stroke-width="1.5"></path><path d="M1104.66 406.36L1131.75 206.6" stroke="hsl(228.5, 77.2%, 51.5%)" stroke-width="1.5"></path><path d="M1104.66 406.36L1003.24 230.64" stroke="hsl(228.5, 77.2%, 51.5%)" stroke-width="1.5"></path><path d="M1137.92 511.75L1137.92 511.75" stroke="hsl(228.5, 77.2%, 51.5%)" stroke-width="1.5"></path><path d="M1137.92 511.75L1280.28 524.41" stroke="hsl(228.5, 77.2%, 51.5%)" stroke-width="1.5"></path><path d="M1137.92 511.75L976.53 528.45" stroke="hsl(228.5, 77.2%, 51.5%)" stroke-width="1.5"></path><path d="M1137.92 511.75L1143.74 698.24" stroke="hsl(228.5, 77.2%, 51.5%)" stroke-width="1.5"></path><path d="M1137.92 511.75L1249.7 665.55" stroke="hsl(228.5, 77.2%, 51.5%)" stroke-width="1.5"></path><path d="M1137.92 511.75L1266.85 354.91" stroke="hsl(228.5, 77.2%, 51.5%)" stroke-width="1.5"></path><path d="M1308.62 198.15L1308.62 198.15" stroke="hsl(228.5, 77.2%, 51.5%)" stroke-width="1.5"></path><path d="M1308.62 198.15L1409.37 255.86" stroke="hsl(228.5, 77.2%, 51.5%)" stroke-width="1.5"></path><path d="M1308.62 198.15L1431.85 98.01" stroke="hsl(228.5, 77.2%, 51.5%)" stroke-width="1.5"></path><path d="M1308.62 198.15L1266.85 354.91" stroke="hsl(228.5, 77.2%, 51.5%)" stroke-width="1.5"></path><path d="M1308.62 198.15L1131.75 206.6" stroke="hsl(228.5, 77.2%, 51.5%)" stroke-width="1.5"></path><path d="M1280.28 524.41L1280.28 524.41" stroke="hsl(228.5, 77.2%, 51.5%)" stroke-width="1.5"></path><path d="M1280.28 524.41L1397.71 547.7" stroke="hsl(228.5, 77.2%, 51.5%)" stroke-width="1.5"></path><path d="M1249.7 665.55L1249.7 665.55" stroke="hsl(228.5, 77.2%, 51.5%)" stroke-width="1.5"></path><path d="M1249.7 665.55L1143.74 698.24" stroke="hsl(228.5, 77.2%, 51.5%)" stroke-width="1.5"></path><path d="M1249.7 665.55L1280.28 524.41" stroke="hsl(228.5, 77.2%, 51.5%)" stroke-width="1.5"></path><path d="M1249.7 665.55L1424.48 650.23" stroke="hsl(228.5, 77.2%, 51.5%)" stroke-width="1.5"></path><path d="M1249.7 665.55L1397.71 547.7" stroke="hsl(228.5, 77.2%, 51.5%)" stroke-width="1.5"></path><path d="M1411.98 -56.42L1411.98 -56.42" stroke="hsl(228.5, 77.2%, 51.5%)" stroke-width="1.5"></path><path d="M1411.98 -56.42L1431.85 98.01" stroke="hsl(228.5, 77.2%, 51.5%)" stroke-width="1.5"></path><path d="M1411.98 -56.42L1575.08 -106.7" stroke="hsl(228.5, 77.2%, 51.5%)" stroke-width="1.5"></path><path d="M1411.98 -56.42L1308.62 198.15" stroke="hsl(228.5, 77.2%, 51.5%)" stroke-width="1.5"></path><path d="M1431.85 98.01L1431.85 98.01" stroke="hsl(228.5, 77.2%, 51.5%)" stroke-width="1.5"></path><path d="M1409.37 255.86L1409.37 255.86" stroke="hsl(228.5, 77.2%, 51.5%)" stroke-width="1.5"></path><path d="M1409.37 255.86L1436.71 388.12" stroke="hsl(228.5, 77.2%, 51.5%)" stroke-width="1.5"></path><path d="M1409.37 255.86L1539.69 343.27" stroke="hsl(228.5, 77.2%, 51.5%)" stroke-width="1.5"></path><path d="M1575.08 -106.7L1575.08 -106.7" stroke="hsl(228.5, 77.2%, 51.5%)" stroke-width="1.5"></path><path d="M1575.08 -106.7L1431.85 98.01" stroke="hsl(228.5, 77.2%, 51.5%)" stroke-width="1.5"></path><path d="M1575.08 -106.7L1580.07 214.15" stroke="hsl(228.5, 77.2%, 51.5%)" stroke-width="1.5"></path><path d="M1575.08 -106.7L1409.37 255.86" stroke="hsl(228.5, 77.2%, 51.5%)" stroke-width="1.5"></path><path d="M1575.08 -106.7L1308.62 198.15" stroke="hsl(228.5, 77.2%, 51.5%)" stroke-width="1.5"></path><path d="M1575.08 -106.7L1539.69 343.27" stroke="hsl(228.5, 77.2%, 51.5%)" stroke-width="1.5"></path><path d="M1539.69 343.27L1539.69 343.27" stroke="hsl(228.5, 77.2%, 51.5%)" stroke-width="1.5"></path><path d="M1539.69 343.27L1436.71 388.12" stroke="hsl(228.5, 77.2%, 51.5%)" stroke-width="1.5"></path><path d="M1539.69 343.27L1580.07 214.15" stroke="hsl(228.5, 77.2%, 51.5%)" stroke-width="1.5"></path><path d="M1539.69 343.27L1547.17 524.36" stroke="hsl(228.5, 77.2%, 51.5%)" stroke-width="1.5"></path><path d="M1539.69 343.27L1397.71 547.7" stroke="hsl(228.5, 77.2%, 51.5%)" stroke-width="1.5"></path><path d="M1539.69 343.27L1431.85 98.01" stroke="hsl(228.5, 77.2%, 51.5%)" stroke-width="1.5"></path><path d="M1553.73 658.86L1553.73 658.86" stroke="hsl(228.5, 77.2%, 51.5%)" stroke-width="1.5"></path><path d="M1553.73 658.86L1424.48 650.23" stroke="hsl(228.5, 77.2%, 51.5%)" stroke-width="1.5"></path><path d="M1553.73 658.86L1547.17 524.36" stroke="hsl(228.5, 77.2%, 51.5%)" stroke-width="1.5"></path><path d="M-72.83 530.98L-72.83 530.98" stroke="hsl(228.5, 77.2%, 51.5%)" stroke-width="1.5"></path><path d="M-72.83 530.98L-92.59 702.91" stroke="hsl(228.5, 77.2%, 51.5%)" stroke-width="1.5"></path><path d="M-72.83 530.98L64.8 646.72" stroke="hsl(228.5, 77.2%, 51.5%)" stroke-width="1.5"></path><path d="M-72.83 530.98L109.94 526.57" stroke="hsl(228.5, 77.2%, 51.5%)" stroke-width="1.5"></path><path d="M-72.83 530.98L225.99 533.88" stroke="hsl(228.5, 77.2%, 51.5%)" stroke-width="1.5"></path><path d="M-92.59 702.91L-92.59 702.91" stroke="hsl(228.5, 77.2%, 51.5%)" stroke-width="1.5"></path><path d="M-92.59 702.91L64.8 646.72" stroke="hsl(228.5, 77.2%, 51.5%)" stroke-width="1.5"></path><path d="M-92.59 702.91L109.94 526.57" stroke="hsl(228.5, 77.2%, 51.5%)" stroke-width="1.5"></path><path d="M-92.59 702.91L228.31 712.06" stroke="hsl(228.5, 77.2%, 51.5%)" stroke-width="1.5"></path><path d="M-92.59 702.91L225.99 533.88" stroke="hsl(228.5, 77.2%, 51.5%)" stroke-width="1.5"></path><path d="M-92.59 702.91L401.62 645.76" stroke="hsl(228.5, 77.2%, 51.5%)" stroke-width="1.5"></path><path d="M109.94 526.57L109.94 526.57" stroke="hsl(228.5, 77.2%, 51.5%)" stroke-width="1.5"></path><path d="M109.94 526.57L225.99 533.88" stroke="hsl(228.5, 77.2%, 51.5%)" stroke-width="1.5"></path><path d="M109.94 526.57L64.8 646.72" stroke="hsl(228.5, 77.2%, 51.5%)" stroke-width="1.5"></path><path d="M64.8 646.72L64.8 646.72" stroke="hsl(228.5, 77.2%, 51.5%)" stroke-width="1.5"></path><path d="M64.8 646.72L228.31 712.06" stroke="hsl(228.5, 77.2%, 51.5%)" stroke-width="1.5"></path><path d="M225.99 533.88L225.99 533.88" stroke="hsl(228.5, 77.2%, 51.5%)" stroke-width="1.5"></path><path d="M225.99 533.88L228.31 712.06" stroke="hsl(228.5, 77.2%, 51.5%)" stroke-width="1.5"></path><path d="M225.99 533.88L408.66 501.45" stroke="hsl(228.5, 77.2%, 51.5%)" stroke-width="1.5"></path><path d="M225.99 533.88L64.8 646.72" stroke="hsl(228.5, 77.2%, 51.5%)" stroke-width="1.5"></path><path d="M225.99 533.88L401.62 645.76" stroke="hsl(228.5, 77.2%, 51.5%)" stroke-width="1.5"></path><path d="M228.31 712.06L228.31 712.06" stroke="hsl(228.5, 77.2%, 51.5%)" stroke-width="1.5"></path><path d="M228.31 712.06L401.62 645.76" stroke="hsl(228.5, 77.2%, 51.5%)" stroke-width="1.5"></path><path d="M408.66 501.45L408.66 501.45" stroke="hsl(228.5, 77.2%, 51.5%)" stroke-width="1.5"></path><path d="M408.66 501.45L401.62 645.76" stroke="hsl(228.5, 77.2%, 51.5%)" stroke-width="1.5"></path><path d="M408.66 501.45L492.64 676.33" stroke="hsl(228.5, 77.2%, 51.5%)" stroke-width="1.5"></path><path d="M401.62 645.76L401.62 645.76" stroke="hsl(228.5, 77.2%, 51.5%)" stroke-width="1.5"></path><path d="M401.62 645.76L492.64 676.33" stroke="hsl(228.5, 77.2%, 51.5%)" stroke-width="1.5"></path><path d="M401.62 645.76L663.35 685.17" stroke="hsl(228.5, 77.2%, 51.5%)" stroke-width="1.5"></path><path d="M492.64 676.33L492.64 676.33" stroke="hsl(228.5, 77.2%, 51.5%)" stroke-width="1.5"></path><path d="M492.64 676.33L663.35 685.17" stroke="hsl(228.5, 77.2%, 51.5%)" stroke-width="1.5"></path><path d="M641.28 379.7L641.28 379.7" stroke="hsl(228.5, 77.2%, 51.5%)" stroke-width="1.5"></path><path d="M641.28 379.7L797.62 354.93" stroke="hsl(228.5, 77.2%, 51.5%)" stroke-width="1.5"></path><path d="M641.28 379.7L850.37 535.61" stroke="hsl(228.5, 77.2%, 51.5%)" stroke-width="1.5"></path><path d="M641.28 379.7L408.66 501.45" stroke="hsl(228.5, 77.2%, 51.5%)" stroke-width="1.5"></path><path d="M663.35 685.17L663.35 685.17" stroke="hsl(228.5, 77.2%, 51.5%)" stroke-width="1.5"></path><path d="M663.35 685.17L850.37 535.61" stroke="hsl(228.5, 77.2%, 51.5%)" stroke-width="1.5"></path><path d="M797.62 354.93L797.62 354.93" stroke="hsl(228.5, 77.2%, 51.5%)" stroke-width="1.5"></path><path d="M797.62 354.93L939.01 400.05" stroke="hsl(228.5, 77.2%, 51.5%)" stroke-width="1.5"></path><path d="M797.62 354.93L850.37 535.61" stroke="hsl(228.5, 77.2%, 51.5%)" stroke-width="1.5"></path><path d="M850.37 535.61L850.37 535.61" stroke="hsl(228.5, 77.2%, 51.5%)" stroke-width="1.5"></path><path d="M850.37 535.61L976.53 528.45" stroke="hsl(228.5, 77.2%, 51.5%)" stroke-width="1.5"></path><path d="M1003.24 230.64L1003.24 230.64" stroke="hsl(228.5, 77.2%, 51.5%)" stroke-width="1.5"></path><path d="M1003.24 230.64L1131.75 206.6" stroke="hsl(228.5, 77.2%, 51.5%)" stroke-width="1.5"></path><path d="M1003.24 230.64L939.01 400.05" stroke="hsl(228.5, 77.2%, 51.5%)" stroke-width="1.5"></path><path d="M939.01 400.05L939.01 400.05" stroke="hsl(228.5, 77.2%, 51.5%)" stroke-width="1.5"></path><path d="M939.01 400.05L976.53 528.45" stroke="hsl(228.5, 77.2%, 51.5%)" stroke-width="1.5"></path><path d="M939.01 400.05L850.37 535.61" stroke="hsl(228.5, 77.2%, 51.5%)" stroke-width="1.5"></path><path d="M976.53 528.45L976.53 528.45" stroke="hsl(228.5, 77.2%, 51.5%)" stroke-width="1.5"></path><path d="M960.21 702.09L960.21 702.09" stroke="hsl(228.5, 77.2%, 51.5%)" stroke-width="1.5"></path><path d="M960.21 702.09L976.53 528.45" stroke="hsl(228.5, 77.2%, 51.5%)" stroke-width="1.5"></path><path d="M960.21 702.09L1143.74 698.24" stroke="hsl(228.5, 77.2%, 51.5%)" stroke-width="1.5"></path><path d="M960.21 702.09L850.37 535.61" stroke="hsl(228.5, 77.2%, 51.5%)" stroke-width="1.5"></path><path d="M960.21 702.09L1137.92 511.75" stroke="hsl(228.5, 77.2%, 51.5%)" stroke-width="1.5"></path><path d="M960.21 702.09L1249.7 665.55" stroke="hsl(228.5, 77.2%, 51.5%)" stroke-width="1.5"></path><path d="M960.21 702.09L663.35 685.17" stroke="hsl(228.5, 77.2%, 51.5%)" stroke-width="1.5"></path><path d="M1131.75 206.6L1131.75 206.6" stroke="hsl(228.5, 77.2%, 51.5%)" stroke-width="1.5"></path><path d="M1143.74 698.24L1143.74 698.24" stroke="hsl(228.5, 77.2%, 51.5%)" stroke-width="1.5"></path><path d="M1143.74 698.24L1280.28 524.41" stroke="hsl(228.5, 77.2%, 51.5%)" stroke-width="1.5"></path><path d="M1266.85 354.91L1266.85 354.91" stroke="hsl(228.5, 77.2%, 51.5%)" stroke-width="1.5"></path><path d="M1266.85 354.91L1280.28 524.41" stroke="hsl(228.5, 77.2%, 51.5%)" stroke-width="1.5"></path><path d="M1266.85 354.91L1436.71 388.12" stroke="hsl(228.5, 77.2%, 51.5%)" stroke-width="1.5"></path><path d="M1266.85 354.91L1409.37 255.86" stroke="hsl(228.5, 77.2%, 51.5%)" stroke-width="1.5"></path><path d="M1436.71 388.12L1436.71 388.12" stroke="hsl(228.5, 77.2%, 51.5%)" stroke-width="1.5"></path><path d="M1436.71 388.12L1397.71 547.7" stroke="hsl(228.5, 77.2%, 51.5%)" stroke-width="1.5"></path><path d="M1397.71 547.7L1397.71 547.7" stroke="hsl(228.5, 77.2%, 51.5%)" stroke-width="1.5"></path><path d="M1397.71 547.7L1424.48 650.23" stroke="hsl(228.5, 77.2%, 51.5%)" stroke-width="1.5"></path><path d="M1397.71 547.7L1547.17 524.36" stroke="hsl(228.5, 77.2%, 51.5%)" stroke-width="1.5"></path><path d="M1424.48 650.23L1424.48 650.23" stroke="hsl(228.5, 77.2%, 51.5%)" stroke-width="1.5"></path><path d="M1580.07 214.15L1580.07 214.15" stroke="hsl(228.5, 77.2%, 51.5%)" stroke-width="1.5"></path><path d="M1580.07 214.15L1409.37 255.86" stroke="hsl(228.5, 77.2%, 51.5%)" stroke-width="1.5"></path><path d="M1547.17 524.36L1547.17 524.36" stroke="hsl(228.5, 77.2%, 51.5%)" stroke-width="1.5"></path><path d="M1547.17 524.36L1436.71 388.12" stroke="hsl(228.5, 77.2%, 51.5%)" stroke-width="1.5"></path><path d="M1547.17 524.36L1424.48 650.23" stroke="hsl(228.5, 77.2%, 51.5%)" stroke-width="1.5"></path><circle r="25" cx="704.08" cy="550.43" fill="url(#SvgjsRadialGradient1003)"></circle><circle r="25" cx="1104.66" cy="406.36" fill="url(#SvgjsRadialGradient1003)"></circle><circle r="25" cx="1137.92" cy="511.75" fill="url(#SvgjsRadialGradient1003)"></circle><circle r="25" cx="1308.62" cy="198.15" fill="url(#SvgjsRadialGradient1003)"></circle><circle r="25" cx="1280.28" cy="524.41" fill="url(#SvgjsRadialGradient1003)"></circle><circle r="25" cx="1249.7" cy="665.55" fill="url(#SvgjsRadialGradient1003)"></circle><circle r="25" cx="1411.98" cy="-56.42" fill="url(#SvgjsRadialGradient1003)"></circle><circle r="25" cx="1431.85" cy="98.01" fill="url(#SvgjsRadialGradient1003)"></circle><circle r="25" cx="1409.37" cy="255.86" fill="url(#SvgjsRadialGradient1003)"></circle><circle r="25" cx="1575.08" cy="-106.7" fill="url(#SvgjsRadialGradient1003)"></circle><circle r="25" cx="1539.69" cy="343.27" fill="url(#SvgjsRadialGradient1003)"></circle><circle r="25" cx="1553.73" cy="658.86" fill="url(#SvgjsRadialGradient1003)"></circle><circle r="5" cx="-72.83" cy="530.98" fill="#8b9ad9"></circle><circle r="5" cx="-92.59" cy="702.91" fill="#8b9ad9"></circle><circle r="5" cx="109.94" cy="526.57" fill="#8b9ad9"></circle><circle r="5" cx="64.8" cy="646.72" fill="#8b9ad9"></circle><circle r="5" cx="225.99" cy="533.88" fill="#8b9ad9"></circle><circle r="5" cx="228.31" cy="712.06" fill="#8b9ad9"></circle><circle r="5" cx="408.66" cy="501.45" fill="#8b9ad9"></circle><circle r="5" cx="401.62" cy="645.76" fill="#8b9ad9"></circle><circle r="5" cx="492.64" cy="676.33" fill="#8b9ad9"></circle><circle r="5" cx="641.28" cy="379.7" fill="#8b9ad9"></circle><circle r="5" cx="663.35" cy="685.17" fill="#8b9ad9"></circle><circle r="5" cx="797.62" cy="354.93" fill="#8b9ad9"></circle><circle r="5" cx="850.37" cy="535.61" fill="#8b9ad9"></circle><circle r="5" cx="1003.24" cy="230.64" fill="#8b9ad9"></circle><circle r="5" cx="939.01" cy="400.05" fill="#8b9ad9"></circle><circle r="5" cx="976.53" cy="528.45" fill="#8b9ad9"></circle><circle r="5" cx="960.21" cy="702.09" fill="#8b9ad9"></circle><circle r="5" cx="1131.75" cy="206.6" fill="#8b9ad9"></circle><circle r="5" cx="1143.74" cy="698.24" fill="#8b9ad9"></circle><circle r="5" cx="1266.85" cy="354.91" fill="#8b9ad9"></circle><circle r="5" cx="1436.71" cy="388.12" fill="#8b9ad9"></circle><circle r="5" cx="1397.71" cy="547.7" fill="#8b9ad9"></circle><circle r="5" cx="1424.48" cy="650.23" fill="#8b9ad9"></circle><circle r="5" cx="1580.07" cy="214.15" fill="#8b9ad9"></circle><circle r="5" cx="1547.17" cy="524.36" fill="#8b9ad9"></circle></g><defs><mask id="SvgjsMask1002"><rect width="1440" height="560" fill="#ffffff"></rect></mask><radialGradient id="SvgjsRadialGradient1003"><stop stop-color="#ffffff" offset="0.1"></stop><stop stop-color="#1735b3" offset="0.2"></stop><stop stop-color="rgba(23, 53, 179, 0)" offset="1"></stop></radialGradient></defs></svg>