<svg xmlns="http://www.w3.org/2000/svg" version="1.1" xmlns:xlink="http://www.w3.org/1999/xlink" xmlns:svgjs="http://svgjs.com/svgjs" width="1440" height="560" preserveAspectRatio="none" viewBox="0 0 1440 560"><g mask="url(&quot;#SvgjsMask1003&quot;)" fill="none"><rect width="1440" height="560" x="0" y="0" fill="rgba(20, 65, 132, 1)"></rect><path d="M0,643.079C123.061,643.254,248.888,614.084,346.421,539.042C440.381,466.75,475.214,347.352,524.502,239.532C573.809,131.67,673.519,20.776,634.54,-91.233C594.476,-206.359,439.08,-224.187,338.94,-293.693C267.31,-343.411,203.851,-395.81,129.68,-441.651C26.881,-505.185,-59.834,-621.332,-180.501,-614.729C-301.678,-608.098,-396.599,-504.061,-471.712,-408.741C-544.659,-316.17,-581.931,-202.731,-597.245,-85.871C-612.417,29.903,-602.359,146.855,-558.712,255.155C-513.682,366.888,-444.743,469.355,-345.79,538.06C-244.795,608.183,-122.952,642.905,0,643.079" fill="#103367"></path><path d="M1440 879.173C1509.897 874.9 1582.831 910.856 1645.825 880.269 1710.807 848.717 1752.8609999999999 782.14 1778.739 714.697 1803.716 649.604 1806.222 577.25 1787.909 509.978 1770.815 447.183 1724.425 399.598 1680.013 352.028 1637.1399999999999 306.10699999999997 1593.637 259.419 1534.413 238.457 1473.323 216.834 1408.606 227.863 1344.014 233.101 1263.098 239.663 1166.165 215.57600000000002 1108.757 272.976 1051.734 329.991 1072.937 426.244 1070.24 506.836 1067.821 579.113 1068.879 650.212 1093.8600000000001 718.077 1120.333 789.994 1147.864 874.126 1217.343 906.462 1286.536 938.665 1363.8220000000001 883.8299999999999 1440 879.173" fill="#184fa1"></path></g><defs><mask id="SvgjsMask1003"><rect width="1440" height="560" fill="#ffffff"></rect></mask></defs></svg>