<svg xmlns="http://www.w3.org/2000/svg" version="1.1" xmlns:xlink="http://www.w3.org/1999/xlink" xmlns:svgjs="http://svgjs.com/svgjs" width="1440" height="560" preserveAspectRatio="none" viewBox="0 0 1440 560"><g mask="url(&quot;#SvgjsMask1022&quot;)" fill="none"><rect width="1440" height="560" x="0" y="0" fill="url(#SvgjsLinearGradient1023)"></rect><path d="M 0,56 C 57.6,94.2 172.8,238.6 288,247 C 403.2,255.4 460.8,102 576,98 C 691.2,94 748.8,231.4 864,227 C 979.2,222.6 1036.8,78.6 1152,76 C 1267.2,73.4 1382.4,186.4 1440,214L1440 560L0 560z" fill="#184a7e"></path><path d="M 0,289 C 96,341.8 288,543 480,553 C 672,563 768,345.8 960,339 C 1152,332.2 1344,483 1440,519L1440 560L0 560z" fill="#2264ab"></path></g><defs><mask id="SvgjsMask1022"><rect width="1440" height="560" fill="#ffffff"></rect></mask><linearGradient x1="50%" y1="0%" x2="50%" y2="100%" gradientUnits="userSpaceOnUse" id="SvgjsLinearGradient1023"><stop stop-color="#0e2a47" offset="0"></stop><stop stop-color="#00459e" offset="1"></stop></linearGradient></defs></svg>